<svg xmlns="http://www.w3.org/2000/svg" width="100" height="100" viewBox="0 0 100 100"><title>icons</title><g id="icons"><g id="icon-arrows"><path d="M16.7,33.6c10.2-17.4,25.6-24.7,43.2-20A36.1,36.1,0,0,1,83.2,32.4c2.7,5.1,2,9-1.7,11.1s-7.8.6-10.6-4.5c-4.6-8.3-11.5-12.8-21-12.6S33.9,31.2,29.5,39.6c1.3.8,3,1.2,3.4,2.2s.5,4-.1,4.3a93.4,93.4,0,0,1-13.4,5.8c-1.1.4-3.4-1-4.1-2.3a54.8,54.8,0,0,1-4.1-9.3,41,41,0,0,1-1.2-5.7Z" fill="none" stroke="#f7e233" stroke-miterlimit="10"  stroke-width="2" fill-rule="evenodd"/><path d="M83.7,66.5C75.9,81.1,63.8,89.1,46.5,87.7c-13.9-1.2-23.8-8.6-30-21-2.2-4.3-1-8.2,2.6-10s7.6-.5,9.8,3.6c3.6,6.8,8.8,11.6,16.4,13.2,10.5,2.2,20-2.5,25.3-12.7a17,17,0,0,1-1.8-1.4c-1-1-2.7-2.2-2.6-3.1s1.7-2.3,2.9-2.9c3.5-1.7,7.1-3.1,10.7-4.7s4.5-.5,5.6,2.2,2.8,6.2,3.9,9.3a30.5,30.5,0,0,1,.9,5.7Z" fill="none" stroke="#f7e233" stroke-miterlimit="10"  stroke-width="2" fill-rule="evenodd"/></g></g></svg>