<svg xmlns="http://www.w3.org/2000/svg" width="100" height="100" viewBox="0 0 100 100"><title>icons</title><path d="M59.5 65.8c.5 2.8-2.2 5.2-1.8 7.5s6.4 3.5 9.9 3.5 6.2-.3 7.4-1.7c-1.2-4.9-2.2-13.2-.2-17.4s7 .2 10.6-.2c1.7-.2 3.4-2.3 4-3.9 1.7-4.2.5-13.3-3.5-13.7s-5 3.5-8.7 2.5-3.5-6.4-3.5-10.2c0-2 1.3-6.5.7-7.5s-6-1.6-8.5-1.5-7.1.7-7.5 3 2.5 4.2 2.7 7c.6 9-16.9 8.8-20.4 3.7-1.7-2.4-.7-5.2.2-7.2s1.5-2.3 1.2-3.7-5.2-2.7-8.4-2.7A20 20 0 0 0 26 25c.4 3.4 1 7.5.3 11.2-.3 1.8-1.3 4.7-3 5.4-3.3 1.4-5.9-2.4-9.5-1.6S9 53.2 12.1 56.2s4.6 1 6.9 0 2.7-1.5 4-1.2 2.6 4.3 2.8 7a47.8 47.8 0 0 1-.8 12.5c4.2 1.7 13.7 2.6 16.4-1-.3-3.5-3.4-5.3-2.7-9s5.3-4.7 8.9-4.9 8.5 1.3 10.7 3.5c.3 1.5 1 1.5 1.2 2.7z" fill="none" stroke="#00a04a" stroke-miterlimit="10" stroke-width="2"/></svg>