<svg xmlns="http://www.w3.org/2000/svg" width="100" height="100" viewBox="0 0 100 100"><title>login</title><path class="st0" d="M88 31.9v36.4c0 8-6.5 14.6-14.6 14.6H37.1c-8 0-14.6-6.5-14.6-14.6v-3.6h7.3V72c0 2 1.6 3.6 3.6 3.6h43.7c2 0 3.6-1.6 3.6-3.6V28.3c0-2-1.6-3.6-3.6-3.6H33.4c-2 0-3.6 1.6-3.6 3.6v7.3h-7.3V32c0-8 6.5-14.6 14.6-14.6h36.4c8-.1 14.5 6.5 14.5 14.5zM57.5 48.8l-19-15.7c-.8-.6-1.4-.3-1.4.7v9H9.8c-1 0-1.8.8-1.8 1.8v10.9c0 1 .8 1.8 1.8 1.8h27.3v9c0 1 .6 1.3 1.4.7l19-15.9c.8-.6.8-1.6 0-2.3z" fill="none" stroke="#EA2127" stroke-miterlimit="10" stroke-width="2"/></svg>
