<?xml version="1.0" encoding="UTF-8" standalone="no"?><!DOCTYPE svg PUBLIC "-//W3C//DTD SVG 1.1//EN" "http://www.w3.org/Graphics/SVG/1.1/DTD/svg11.dtd"><svg width="100%" height="100%" viewBox="0 0 82 31" version="1.1" xmlns="http://www.w3.org/2000/svg" xmlns:xlink="http://www.w3.org/1999/xlink" xml:space="preserve" style="fill-rule:evenodd;clip-rule:evenodd;stroke-linejoin:round;stroke-miterlimit:1.41421;"><rect id="Artboard1" x="0" y="0" width="81.597" height="30.557" style="fill:none;"/><path d="M28.464,23.879c-0.009,-0.015 -0.019,-0.047 -0.032,-0.096c0.018,-0.134 0.104,-0.237 0.26,-0.31c0.13,-0.053 0.243,-0.071 0.336,-0.054c0.12,-0.013 0.205,0 0.252,0.039c0.054,0.048 0.072,0.122 0.057,0.22c0.01,0.009 0.016,0.021 0.02,0.035c-0.005,-0.011 -0.016,-0.004 -0.035,0.019c-0.041,0.032 -0.092,0.077 -0.153,0.134l-0.151,0.017l-0.018,-0.15c0.005,-0.014 -0.001,-0.025 -0.019,-0.035c-0.014,-0.017 -0.033,-0.022 -0.055,-0.015c-0.013,-0.004 -0.024,0.002 -0.034,0.02c-0.017,0.015 -0.031,0.031 -0.042,0.047l0.003,0.206c0.012,0.014 0.019,0.026 0.02,0.034c0.014,0.012 0.02,0.024 0.019,0.035c0.025,0 0.043,0.006 0.055,0.015l0.267,-0.016c0.018,-0.014 0.032,-0.03 0.042,-0.046c0.054,-0.058 0.106,-0.103 0.153,-0.134c0.095,-0.089 0.124,-0.16 0.087,-0.211c-0.007,-0.118 -0.051,-0.207 -0.132,-0.269c-0.06,-0.069 -0.168,-0.098 -0.327,-0.088c-0.112,-0.021 -0.244,0.002 -0.398,0.067c-0.222,0.097 -0.339,0.241 -0.351,0.43c0.008,0.092 0.02,0.154 0.038,0.186l0.007,-0.028c0.017,0.117 0.095,0.187 0.236,0.21c0.029,-0.005 0.049,-0.009 0.061,-0.012c0.019,-0.022 0.024,-0.041 0.015,-0.054c0.013,-0.026 0.009,-0.046 -0.013,-0.062c-0.004,-0.014 -0.022,-0.019 -0.054,-0.015c-0.065,-0.013 -0.105,-0.043 -0.121,-0.091l0.007,-0.028Zm10.103,-14.819l-0.02,-0.034l0.02,0.034m-1.156,1.03l0.027,0.008c-0.009,-0.015 -0.025,-0.029 -0.047,-0.042l1.072,-0.936c0.146,0.103 0.211,0.257 0.197,0.462c0.012,0.193 -0.055,0.37 -0.203,0.529c-0.142,0.131 -0.317,0.2 -0.524,0.209c-0.201,-0.009 -0.375,-0.086 -0.522,-0.23m-0.216,-0.497c0.014,-0.217 0.088,-0.382 0.222,-0.495l0.007,-0.027c0.128,-0.139 0.291,-0.201 0.49,-0.188c0.184,-0.01 0.338,0.033 0.463,0.125l-1.073,0.936c-0.068,-0.109 -0.103,-0.227 -0.109,-0.351m0.135,-0.606c-0.167,0.136 -0.26,0.336 -0.279,0.597c0.003,0.174 0.055,0.344 0.155,0.509l0.027,0.008c0.012,0.015 0.028,0.029 0.047,0.042l0.019,0.034c0.175,0.177 0.383,0.272 0.624,0.286c0.245,-0.006 0.451,-0.086 0.621,-0.24l0.007,-0.028c0.179,-0.18 0.263,-0.381 0.252,-0.603c0.017,-0.264 -0.066,-0.462 -0.248,-0.594l0.007,-0.027c-0.012,-0.016 -0.03,-0.021 -0.054,-0.015c-0.159,-0.149 -0.354,-0.221 -0.585,-0.217c-0.242,-0.01 -0.44,0.073 -0.593,0.248m-9.933,3.644c-0.168,0 -0.311,-0.049 -0.428,-0.146c-0.119,-0.12 -0.18,-0.253 -0.183,-0.4c0.015,-0.122 0.044,-0.231 0.089,-0.327l1,0.622c-0.009,0.031 -0.028,0.065 -0.057,0.102c-0.114,0.099 -0.254,0.148 -0.421,0.149m-0.438,-0.967c0.018,-0.021 0.023,-0.039 0.015,-0.055c0.126,-0.104 0.266,-0.153 0.42,-0.148c0.165,-0.001 0.296,0.054 0.393,0.165l0.021,0.035c0.129,0.09 0.19,0.224 0.183,0.4c0.004,0.066 -0.004,0.133 -0.025,0.198l-1.007,-0.595m-0.087,-0.111c-0.01,0.006 -0.021,0.012 -0.034,0.02l-0.035,0.019c-0.012,0.01 -0.026,0.025 -0.042,0.047c-0.065,0.118 -0.105,0.263 -0.118,0.436c0.004,0.186 0.085,0.354 0.243,0.504c0.134,0.127 0.302,0.192 0.502,0.195c0.203,0.004 0.375,-0.057 0.517,-0.181l0.007,-0.028c0.061,-0.061 0.106,-0.117 0.134,-0.168c0.058,-0.1 0.087,-0.209 0.088,-0.326c0.006,-0.23 -0.072,-0.407 -0.235,-0.532c-0.126,-0.144 -0.291,-0.217 -0.495,-0.222c-0.205,0.002 -0.383,0.08 -0.532,0.236m0.517,1.543c-0.284,0.008 -0.54,-0.09 -0.768,-0.297c-0.188,-0.211 -0.277,-0.459 -0.266,-0.743c-0.003,-0.302 0.093,-0.548 0.289,-0.741c0.221,-0.206 0.474,-0.313 0.759,-0.32c0.295,0.016 0.537,0.13 0.726,0.344c0.214,0.186 0.324,0.43 0.327,0.731c-0.01,0.278 -0.126,0.53 -0.35,0.753c-0.177,0.196 -0.408,0.289 -0.69,0.28l-0.027,-0.007m-0.97,-0.089c0.287,0.265 0.613,0.393 0.977,0.383c0.377,0.01 0.682,-0.112 0.918,-0.364c0.279,-0.279 0.425,-0.6 0.436,-0.963c-0.006,-0.383 -0.145,-0.694 -0.419,-0.933c-0.241,-0.27 -0.543,-0.41 -0.908,-0.422l-0.027,-0.007c-0.363,0.013 -0.683,0.15 -0.96,0.412c-0.255,0.249 -0.38,0.566 -0.374,0.95c-0.004,0.357 0.115,0.672 0.357,0.944m5.664,-0.945c-0.073,-0.002 -0.146,-0.022 -0.219,-0.06l0.69,-0.601c0.031,0.04 0.047,0.092 0.045,0.158c-0.007,0.125 -0.068,0.244 -0.186,0.359c-0.071,0.092 -0.17,0.133 -0.296,0.124l-0.034,0.02m0.006,-0.992c0.113,0.005 0.211,0.041 0.292,0.108l-0.724,0.622c-0.037,-0.075 -0.053,-0.158 -0.051,-0.247c0.005,-0.138 0.055,-0.251 0.151,-0.339c0.095,-0.091 0.205,-0.14 0.332,-0.144m-0.54,-0.059l0.028,0.008c-0.16,0.135 -0.245,0.306 -0.257,0.514c-0.012,0.216 0.062,0.411 0.221,0.586c0.026,0.008 0.044,0.013 0.054,0.015c0.148,0.135 0.316,0.2 0.503,0.195c0.22,0.007 0.397,-0.071 0.531,-0.236l-0.007,0.028c0.172,-0.172 0.263,-0.362 0.271,-0.569c0,-0.184 -0.074,-0.341 -0.223,-0.47c0.004,-0.018 -0.002,-0.03 -0.02,-0.035c0.002,-0.021 -0.004,-0.032 -0.02,-0.034c-0.144,-0.144 -0.318,-0.22 -0.522,-0.23l-0.035,0.02c-0.206,0.002 -0.381,0.072 -0.524,0.208m-6.756,-6.657c0.023,-0.005 0.035,-0.012 0.036,-0.02c0.031,-0.001 0.267,-0.044 0.707,-0.129c0.024,-0.005 0.045,-0.01 0.061,-0.013c0.789,-0.128 1.423,-0.024 1.903,0.312c-0.098,0.146 -0.274,0.294 -0.529,0.442c-0.041,0.022 -0.078,0.05 -0.111,0.086c-0.017,0.04 -0.029,0.085 -0.037,0.137c-1.028,0.182 -2.268,0.585 -3.719,1.21c-0.002,0.007 -0.013,0.013 -0.035,0.02c0,-0.02 -0.016,-0.034 -0.047,-0.042c-0.376,-0.298 -0.519,-0.668 -0.429,-1.11c0.017,-0.03 0.025,-0.057 0.023,-0.082c0.016,0.01 0.022,0.022 0.019,0.035c0.065,0.047 0.121,0.091 0.168,0.133l0.028,0.007c0.022,-0.004 0.033,-0.011 0.034,-0.019l1.928,-0.967m0.559,-0.228c-0.032,0.008 -0.063,0.019 -0.096,0.032l0.069,-0.04l0.027,0.008m-20.495,25.001c-0.625,-0.075 -1.225,-0.267 -1.802,-0.577c-0.412,-0.691 -0.701,-1.383 -0.868,-2.077c1.008,0.783 1.898,1.668 2.67,2.654m70.785,-13.883l-0.02,-0.034l0.405,-0.095l-0.029,0.752l-0.353,-0.096l0.007,-0.027l-0.01,-0.5m-13.783,-5.965c0.012,-0.02 0.018,-0.038 0.015,-0.054l-0.011,-1.464l0.007,-0.028c0.03,-0.009 0.053,-0.023 0.069,-0.04c0.068,-0.058 0.105,-0.126 0.114,-0.203c0.01,-0.033 0.033,-0.047 0.069,-0.039l1.259,-0.009c0.083,-0.004 0.126,0.017 0.128,0.065c0.022,0.067 0.055,0.124 0.1,0.173c0.058,0.043 0.118,0.069 0.183,0.078l9.106,0.048c3.165,0.062 5.466,-0.336 6.9,-1.194c0.488,2.384 0.442,4.779 -0.138,7.181c-1.047,-0.488 -2.007,-0.896 -2.883,-1.222c-0.014,-0.005 -0.032,-0.009 -0.055,-0.014c-1.693,-0.346 -3.542,-0.498 -5.546,-0.455c0.357,-1.208 0.043,-2.131 -0.943,-2.769c-0.017,-0.013 -0.044,-0.02 -0.082,-0.022l-6.219,-0.024c0.011,0.031 0.011,0.069 -0.002,0.116c0.006,-0.032 -0.007,-0.055 -0.04,-0.069c-0.018,-0.035 -0.051,-0.054 -0.102,-0.057l-1.929,0.002m7.547,6.434l-0.011,-0.5l5.952,0.039l0.018,0.472l-0.007,0.027l-5.952,-0.038m-3.04,-0.212c0.01,-0.022 0.015,-0.04 0.015,-0.055l-0.016,-0.588c0.262,-0.049 0.505,-0.081 0.727,-0.095l0.035,-0.02c0.008,0.007 0.015,0.018 0.019,0.035c0.053,0.043 0.114,0.069 0.184,0.078l1.625,0.15c0.017,0.044 0.043,0.09 0.08,0.138c0.024,0.014 0.049,0.031 0.074,0.049l0.01,0.5c0.001,0.015 -0.004,0.033 -0.015,0.055c-0.004,0 -0.016,0.007 -0.034,0.02c-0.051,0.038 -0.083,0.088 -0.099,0.148l-0.007,0.028l-2.449,-0.023l-0.03,-0.212c0.003,-0.081 -0.028,-0.148 -0.092,-0.201c-0.001,-0.006 -0.01,-0.009 -0.027,-0.007m-0.28,-0.047l-0.322,0l0.025,-0.519c0.103,-0.013 0.195,-0.026 0.274,-0.043l0.031,0.535l-0.008,0.027m-4.588,0.215l0.016,-0.492c1.572,-0.029 2.896,-0.097 3.973,-0.207l-0.009,0.465c-0.002,0.016 -0.007,0.034 -0.015,0.054c-0.014,0.007 -0.037,0.02 -0.07,0.04c-0.034,0.046 -0.057,0.098 -0.071,0.156l-3.824,-0.016m-3.736,-0.021l-0.017,-0.151c0.881,-0.174 1.732,-0.294 2.552,-0.359c0.382,0.013 0.74,0.022 1.074,0.029l-0.017,0.492l0.027,0.008l-3.619,-0.019m-0.286,-0.02c-0.001,0.016 -0.007,0.034 -0.015,0.055c-0.043,0.025 -0.083,0.063 -0.119,0.113c-0.015,0.04 -0.027,0.086 -0.037,0.137l0.008,0.294l-2.135,0.004c0.77,-0.274 1.532,-0.496 2.285,-0.665l0.013,0.062m-18.365,-6.42c-0.01,-0.033 -0.021,-0.066 -0.032,-0.097c0.622,-0.277 1.021,-0.744 1.198,-1.398c0.004,-0.014 0.007,-0.023 0.008,-0.027l21.284,0.082l0.011,1.464c0.003,0.012 0.007,0.032 0.012,0.062l-22.481,-0.086m-2.284,-1.059l-0.019,0.93l-0.686,1.129l-0.099,0.148l0.169,-1.591l0.635,-0.616m0.309,-0.384c-0.006,-0.021 -0.022,-0.035 -0.047,-0.041c-0.014,-0.033 -0.038,-0.05 -0.074,-0.05l-1.299,-0.061c1.503,-0.205 2.931,-0.187 4.282,0.053c-0.156,0.559 -0.509,0.961 -1.057,1.203c-0.046,-0.052 -0.093,-0.094 -0.142,-0.126c-0.229,-0.246 -0.507,-0.37 -0.834,-0.373c-0.321,-0.006 -0.601,0.093 -0.84,0.298l0.016,-0.814c0.015,-0.012 0.017,-0.021 0.007,-0.027c0.013,-0.025 0.009,-0.046 -0.012,-0.062m3.517,6.099c-0.264,-0.238 -0.4,-0.528 -0.407,-0.871c0.017,-0.373 0.148,-0.679 0.395,-0.915l0.007,-0.027c0.091,-0.091 0.188,-0.162 0.292,-0.213c0.024,-0.014 0.038,-0.03 0.042,-0.047l0.027,0.007c0.02,-0.013 0.032,-0.019 0.035,-0.019c0.04,0.016 0.076,0.026 0.109,0.029c0.126,-0.033 0.268,-0.054 0.425,-0.06l-0.027,-0.008c0.338,0.004 0.616,0.127 0.834,0.373l0.02,0.035c0.168,0.139 0.276,0.314 0.325,0.527c-0.046,-0.116 -0.116,-0.213 -0.214,-0.292l-0.019,-0.035c-0.155,-0.194 -0.365,-0.28 -0.631,-0.259c-0.24,-0.012 -0.458,0.074 -0.656,0.261c-0.153,0.166 -0.24,0.376 -0.259,0.631c0.007,0.244 0.085,0.46 0.234,0.647c0.022,0.038 0.063,0.069 0.121,0.092c0.164,0.131 0.35,0.201 0.557,0.21l0.026,0.007c0.258,-0.026 0.461,-0.128 0.609,-0.303l-0.007,0.028c0.074,-0.074 0.132,-0.146 0.175,-0.215c-0.056,0.136 -0.15,0.268 -0.281,0.39c-0.226,0.224 -0.509,0.333 -0.849,0.325c-0.03,0.005 -0.064,0.024 -0.104,0.06c-0.005,0.011 -0.01,0.03 -0.015,0.054c-0.009,-0.012 -0.028,-0.017 -0.054,-0.014c-0.269,-0.046 -0.506,-0.178 -0.71,-0.398m-6.601,-3.138l-0.321,0.001l-0.028,-0.007c0.002,-0.032 -0.012,-0.054 -0.039,-0.07l-0.64,-1.839l3.044,-0.02l-0.23,1.924l-0.445,0.025l-0.027,-0.007c-0.031,-0.017 -0.067,-0.027 -0.109,-0.029l-1.197,-0.005l-0.008,0.027m-0.034,2.709c-0.098,-0.048 -0.165,-0.086 -0.203,-0.114c0.083,-0.27 0.123,-0.415 0.118,-0.435c0.034,-0.139 0.014,-0.241 -0.062,-0.309c-0.044,-0.078 -0.14,-0.114 -0.292,-0.109c-0.129,0.001 -0.249,0.047 -0.358,0.137c-0.083,0.065 -0.161,0.103 -0.235,0.111c0.001,-0.005 -0.008,-0.008 -0.028,-0.007c-0.011,0.008 -0.013,0.018 -0.007,0.028c-0.009,-0.013 -0.027,-0.017 -0.054,-0.015l-0.02,-0.035c0.02,-0.088 0.111,-0.209 0.274,-0.364c0.178,-0.177 0.266,-0.357 0.264,-0.542c0.014,-0.407 -0.075,-0.685 -0.27,-0.833c-0.252,-0.221 -0.455,-0.335 -0.609,-0.341c-0.02,-0.005 -0.035,-0.02 -0.047,-0.042l0.022,-0.082l0.287,0.02c0.022,-0.008 0.034,-0.015 0.034,-0.02l0.241,-0.023c0.006,0.017 0.019,0.039 0.039,0.07l0.376,0.336c0.03,0.014 0.057,0.021 0.082,0.022l0.027,0.007c0.008,0.009 0.015,0.02 0.02,0.035c0.021,0.007 0.037,0.021 0.047,0.042c0.029,0.013 0.056,0.021 0.081,0.022l0.234,0.005c0.013,0.336 0.014,0.513 0.002,0.527l-0.007,0.027c0.013,0.262 -0.002,0.423 -0.044,0.485c-0.009,0.007 -0.021,0.013 -0.034,0.019l-0.008,0.028c0.005,0.017 0.009,0.038 0.012,0.061c0.006,0.006 0.012,0.018 0.02,0.036c0.019,0 0.038,0.005 0.054,0.014l0.145,0.01l0.007,-0.028c0.353,-0.107 0.549,-0.181 0.586,-0.22l-0.008,0.027c0.069,-0.029 0.097,-0.167 0.084,-0.415l0.007,-0.028l-0.03,-0.534l0.5,-0.011c0.022,0.231 0.148,0.411 0.379,0.542c0.148,0.093 0.245,0.168 0.289,0.225l-0.64,0.206c-0.48,0.183 -0.732,0.465 -0.756,0.846l0.032,0.418c0.016,0.109 0.012,0.195 -0.012,0.26c-0.01,0.019 -0.033,0.032 -0.068,0.04c-0.162,0.001 -0.319,-0.032 -0.471,-0.099m-1.342,-3.667l-0.463,-0.447l0.033,-0.984l0.607,0.457l0.575,1.646l-0.141,-0.126c-0.016,-0.025 -0.041,-0.042 -0.074,-0.049c0.006,-0.033 -0.008,-0.056 -0.039,-0.069l-0.498,-0.428m0.161,-1.885c0.026,0.136 0.104,0.244 0.233,0.327c0.146,0.097 0.376,0.15 0.688,0.157c0.038,-0.002 0.07,-0.012 0.096,-0.032c0.033,-0.032 0.052,-0.066 0.057,-0.102c0.009,-0.14 0.017,-0.274 0.022,-0.403l2.919,0.121l-0.747,0.704l-3.161,0.017l-0.661,-0.472l0.554,-0.317m-0.886,1.542c0.006,0.02 0.011,0.041 0.012,0.062l0.262,0.217l-2.011,-0.02c-0.018,0.004 -0.041,0.017 -0.068,0.04c-0.346,-0.689 -0.81,-1.136 -1.39,-1.342c1.001,-0.23 2.234,-0.43 3.7,-0.602l-0.381,0.218c-0.022,0.012 -0.039,0.037 -0.049,0.074c-0.005,0.016 -0.01,0.034 -0.015,0.055c-0.002,-0.002 -0.014,0.004 -0.035,0.019c-0.015,0.019 -0.023,0.046 -0.022,0.082l-0.015,1.136c-0.001,0.02 0.004,0.041 0.012,0.061m0.224,-5.023c0.24,0.454 0.558,0.647 0.953,0.579c0.316,0.161 0.448,0.966 0.396,2.417c0.01,0.07 0.04,0.136 0.092,0.2c0.018,0.007 0.033,0.021 0.047,0.042c-0.003,0.003 -0.006,0.012 -0.007,0.027c-0.007,0.13 -0.014,0.264 -0.023,0.404c-0.177,-0.017 -0.312,-0.054 -0.408,-0.112c-0.083,-0.053 -0.121,-0.131 -0.111,-0.234l0.007,-0.027c0.013,-0.001 0.021,0.002 0.027,0.007c0.067,-0.013 0.122,-0.037 0.166,-0.072c0.043,-0.032 0.073,-0.072 0.091,-0.121c0.02,-0.051 0.023,-0.099 0.01,-0.143c-0.18,-0.826 -0.53,-1.583 -1.049,-2.273c-0.079,-0.225 -0.142,-0.456 -0.191,-0.694m-7.505,8.481c0.082,-0.005 0.139,0 0.17,0.017l0.028,0.008c0.003,0.001 0.001,0.01 -0.008,0.027l0.008,-0.027c0.114,0.572 0.377,1.004 0.788,1.295c-0.118,0.006 -0.321,0.038 -0.612,0.097c-0.175,0.001 -0.353,0.012 -0.534,0.03c-0.466,-0.021 -0.814,-0.067 -1.043,-0.137c-0.164,-0.071 -0.307,-0.12 -0.428,-0.146l0.024,-0.197c0.142,0.028 0.414,0.103 0.817,0.221c0.208,0.035 0.357,0.056 0.449,0.064c0.067,0.014 0.112,0.026 0.137,0.037c0.025,-0.011 0.037,-0.018 0.034,-0.019l0.035,-0.021c0.151,0.007 0.241,0.001 0.267,-0.014c0.015,-0.013 0.02,-0.031 0.015,-0.055c0.021,-0.036 0.026,-0.094 0.017,-0.171c0.017,-0.097 -0.037,-0.22 -0.164,-0.366l0.028,0.008c-0.089,-0.152 -0.142,-0.313 -0.162,-0.483c-0.017,-0.093 -0.021,-0.152 -0.01,-0.177c0.009,-0.007 0.012,-0.016 0.008,-0.028c0.01,0.019 0.055,0.031 0.136,0.037m-2.553,-0.284c-0.014,-0.015 -0.029,-0.029 -0.047,-0.043c0.211,-0.154 0.458,-0.31 0.741,-0.47c0.462,-0.287 0.826,-0.48 1.093,-0.58c0.348,-0.088 0.685,-0.143 1.009,-0.164c-0.02,0.093 -0.047,0.193 -0.081,0.299c-0.053,-0.004 -0.122,-0.003 -0.206,0.003c-0.385,-0.009 -0.691,0.112 -0.917,0.365l0.027,0.007c-0.115,0.109 -0.208,0.24 -0.282,0.391c0.007,0.012 0.011,0.033 0.013,0.062c0.005,0.005 0.011,0.017 0.02,0.034l0.215,0.176l-0.02,-0.035c0.156,0.157 0.268,0.353 0.337,0.588l-0.019,-0.034l-0.003,0.117c-0.062,0.002 -0.133,0.012 -0.212,0.029c-0.009,-0.009 -0.018,-0.011 -0.028,-0.007l-0.165,0.072c-0.174,-0.02 -0.264,-0.122 -0.268,-0.306c0.03,-0.159 0.011,-0.271 -0.054,-0.337c-0.056,-0.097 -0.16,-0.145 -0.313,-0.144c-0.199,-0.015 -0.332,0.075 -0.395,0.273c-0.003,0.038 -0.011,0.212 -0.024,0.52l0.028,0.007l0.042,0.274l-0.027,-0.007l0.002,0.205c-0.138,0.011 -0.229,0.025 -0.274,0.043c-0.078,-0.018 -0.162,-0.07 -0.251,-0.156c0.17,-0.115 0.266,-0.323 0.287,-0.623l-0.027,-0.008c0,-0.217 -0.076,-0.403 -0.229,-0.559l0.028,0.008m-1.128,-0.044l-0.035,0.02c-0.151,0.164 -0.223,0.358 -0.217,0.584l0.007,-0.027c-0.007,0.211 0.06,0.395 0.201,0.551l-0.007,0.027c0.171,0.15 0.334,0.232 0.488,0.25c0.133,0.038 0.298,0.005 0.494,-0.1l0.028,0.008c0.117,0.141 0.244,0.214 0.378,0.22c0.027,-0.005 0.047,-0.009 0.062,-0.013c0.02,-0.011 0.111,-0.025 0.275,-0.042c0.017,-0.015 0.031,-0.031 0.042,-0.047c0.013,-0.011 0.015,-0.019 0.006,-0.027l0.013,-0.26l0.007,-0.027l-0.042,-0.275l-0.008,0.028c0.012,-0.29 0.019,-0.454 0.017,-0.493c0.044,-0.124 0.127,-0.179 0.25,-0.166c0.103,-0.007 0.175,0.013 0.218,0.059c0.037,0.059 0.041,0.148 0.015,0.267c0,0.293 0.142,0.449 0.428,0.468c0.027,-0.004 0.048,-0.008 0.062,-0.013l0.166,-0.072c0.085,-0.008 0.162,-0.006 0.232,0.004c0.023,-0.004 0.035,-0.01 0.035,-0.019c0.024,-0.006 0.036,-0.012 0.034,-0.02c0.019,-0.019 0.024,-0.037 0.015,-0.054l-0.002,-0.205c-0.072,-0.251 -0.191,-0.459 -0.358,-0.624l-0.168,-0.133c0.052,-0.126 0.12,-0.234 0.205,-0.324c0.194,-0.218 0.456,-0.322 0.786,-0.312c0.085,-0.005 0.153,-0.006 0.206,-0.004c-0.026,0.214 -0.036,0.465 -0.029,0.753c0.018,0.073 0.028,0.144 0.03,0.212c-0.028,-0.012 -0.076,-0.015 -0.143,-0.009c-0.177,-0.004 -0.271,0.019 -0.283,0.069c-0.016,0.048 -0.011,0.137 0.016,0.267l-0.028,-0.007c0.019,0.191 0.077,0.373 0.175,0.544c0.096,0.109 0.14,0.199 0.13,0.269c0.011,0.039 0.011,0.077 -0.002,0.117c-0.024,-0.004 -0.093,-0.004 -0.205,0.003c-0.006,-0.006 -0.017,0 -0.035,0.019c-0.015,-0.004 -0.046,-0.002 -0.089,0.005c-0.094,-0.023 -0.241,-0.053 -0.443,-0.091c-0.494,-0.144 -0.805,-0.219 -0.932,-0.224c0,-0.008 -0.009,-0.011 -0.028,-0.007c-0.005,0.006 -0.015,0.013 -0.034,0.019c0.002,0.015 -0.003,0.033 -0.015,0.055l-0.027,0.314c0.012,0.011 0.018,0.022 0.019,0.035c0.019,0.015 0.035,0.029 0.048,0.042c0.13,0.025 0.291,0.079 0.482,0.16c0.235,0.075 0.593,0.123 1.072,0.145l0.027,0.007c0.181,-0.019 0.358,-0.029 0.535,-0.03c0.307,-0.062 0.52,-0.092 0.637,-0.089c0.019,-0.014 0.032,-0.03 0.042,-0.048c0.017,-0.014 0.022,-0.033 0.015,-0.054c0.06,0.042 0.118,0.077 0.176,0.106c0.49,0.276 1.163,0.38 2.019,0.315l0.027,0.007c0.391,-0.087 0.738,-0.217 1.041,-0.39c0.05,-0.026 0.094,-0.043 0.131,-0.051c0.023,0.018 0.038,0.032 0.047,0.042c0.321,-0.001 0.791,-0.009 1.41,-0.027l0.027,0.008c0.755,-0.077 1.326,-0.098 1.712,-0.061c0.479,-0.006 0.769,-0.142 0.87,-0.407l0.008,-0.027c0.058,-0.251 0.11,-0.441 0.155,-0.572c0.019,-0.025 0.024,-0.044 0.015,-0.054c-0.004,-0.027 -0.02,-0.041 -0.047,-0.042c-0.008,-0.014 -0.027,-0.019 -0.055,-0.015l-0.4,0.184l-0.685,0.047c-0.164,-0.01 -0.611,-0.014 -1.341,-0.013c-0.134,-0.002 -0.223,0.003 -0.268,0.015l-0.022,-0.24c0.012,-0.247 0.047,-0.374 0.103,-0.381l0.616,-0.008c-0.004,0.155 0.009,0.256 0.035,0.302c0.044,0.092 0.187,0.14 0.428,0.145l0.027,0.008c0.137,-0.016 0.231,-0.039 0.283,-0.07c0.015,-0.013 0.02,-0.03 0.014,-0.054c0.017,-0.018 0.022,-0.036 0.015,-0.055c-0.012,-0.015 -0.03,-0.02 -0.054,-0.015c0.014,-0.01 0.017,-0.018 0.007,-0.027l0.008,-0.027c0.03,-0.17 -0.144,-0.354 -0.523,-0.551l0.027,0.007c-0.322,-0.222 -0.487,-0.471 -0.498,-0.749l0.189,-0.913c0.02,-0.075 -0.025,-0.127 -0.133,-0.153c-0.05,-0.032 -0.143,-0.048 -0.28,-0.047c-0.13,-0.006 -0.249,0.001 -0.356,0.021c-0.008,-0.008 -0.017,-0.01 -0.027,-0.008c-0.062,-0.185 -0.132,-0.36 -0.209,-0.524l2.272,0.032l0.383,0.309l-0.096,0.033l-0.377,-0.015c-0.005,-0.006 -0.017,0.001 -0.034,0.02c-0.01,0 -0.022,0.007 -0.035,0.019l-0.009,0.144l-0.008,0.027c0.008,0.12 0.069,0.185 0.181,0.195c0.132,0.013 0.308,0.12 0.528,0.319c0.159,0.123 0.232,0.357 0.218,0.702c0.004,0.149 -0.065,0.296 -0.208,0.441c-0.204,0.194 -0.315,0.349 -0.331,0.465c0.011,0.051 0.019,0.092 0.025,0.124c0.025,0.016 0.041,0.03 0.047,0.042c0.043,0.03 0.099,0.036 0.171,0.017c0.103,-0.001 0.215,-0.049 0.331,-0.144c0.09,-0.07 0.186,-0.102 0.29,-0.097c0.088,-0.005 0.151,0.012 0.19,0.053c0.032,0.039 0.036,0.099 0.01,0.177c0.005,0.021 -0.038,0.175 -0.125,0.463c0.008,0.013 0.015,0.025 0.019,0.034c-0.001,0.063 0.086,0.135 0.263,0.218c0.177,0.081 0.362,0.121 0.552,0.121c0.084,-0.004 0.144,-0.047 0.18,-0.127c0.034,-0.075 0.043,-0.18 0.028,-0.314l0.006,-0.027l-0.032,-0.418c0.032,-0.308 0.251,-0.541 0.657,-0.698l0.71,-0.246c0.023,0 0.035,-0.006 0.034,-0.02c0.02,-0.014 0.024,-0.032 0.015,-0.054c0.014,-0.072 -0.109,-0.194 -0.369,-0.363l-0.027,-0.008c-0.175,-0.099 -0.275,-0.233 -0.3,-0.402c0.009,-0.004 0.019,-0.001 0.027,0.006l0.446,-0.024l0.007,-0.028c0.153,0.275 0.318,0.533 0.49,0.776c0.124,0.186 0.369,0.291 0.733,0.316c0.117,0.019 0.413,0.041 0.889,0.066c0.435,0.015 0.713,0.032 0.833,0.052l0.089,-0.006c0.017,-0.005 0.029,-0.012 0.035,-0.02c0.023,0 0.034,-0.007 0.034,-0.019c0.017,-0.01 0.019,-0.019 0.008,-0.027c0.023,-0.071 0.115,-0.124 0.277,-0.159c0.134,-0.055 0.287,-0.082 0.459,-0.08c0.133,-0.008 0.242,0.022 0.327,0.089l0.027,0.007l0.008,-0.026c-0.046,0.058 -0.104,0.131 -0.176,0.215c-0.149,0.206 -0.232,0.475 -0.249,0.809l0.028,0.007c0.002,0.037 0,0.085 -0.01,0.144c-0.022,0.036 -0.109,0.071 -0.262,0.104c-0.299,0.044 -0.56,0.071 -0.782,0.079c-0.243,-0.008 -0.404,-0.061 -0.483,-0.16c-0.054,-0.163 -0.1,-0.282 -0.135,-0.358l0.007,-0.028c-0.03,-0.073 -0.315,-0.062 -0.856,0.031c0.008,-0.009 0.011,-0.018 0.007,-0.027c-0.036,-0.091 -0.083,-0.172 -0.139,-0.243c-0.023,-0.076 -0.077,-0.13 -0.16,-0.16c-0.189,-0.188 -0.419,-0.269 -0.694,-0.246l0.035,-0.021c-0.29,-0.007 -0.54,0.091 -0.751,0.293l-0.028,-0.007c-0.183,0.213 -0.276,0.451 -0.281,0.713c-0.009,0.297 0.098,0.55 0.32,0.758l-0.02,-0.034c0.197,0.215 0.438,0.329 0.725,0.343c0.281,-0.021 0.522,-0.122 0.725,-0.3l0.007,-0.027c0.2,-0.208 0.305,-0.452 0.316,-0.732c-0.001,-0.039 -0.022,-0.074 -0.06,-0.104c-0.007,-0.021 -0.023,-0.034 -0.047,-0.042c0.489,-0.091 0.743,-0.129 0.762,-0.115c0.038,0.079 0.081,0.208 0.129,0.386c0.098,0.141 0.302,0.216 0.612,0.225c0.229,-0.006 0.498,-0.03 0.809,-0.073l0.007,-0.028c0.245,-0.046 0.372,-0.119 0.38,-0.218l0.008,-0.027c0.001,-0.059 -0.005,-0.109 -0.018,-0.15l-0.007,0.026c0.019,-0.299 0.094,-0.542 0.226,-0.727c0.07,-0.097 0.132,-0.178 0.183,-0.243c0.01,-0.006 0.012,-0.015 0.008,-0.027c0.036,-0.069 0.009,-0.116 -0.079,-0.138c-0.108,-0.083 -0.244,-0.12 -0.408,-0.111c-0.198,-0.002 -0.372,0.03 -0.523,0.092l0.027,0.007c-0.211,0.041 -0.338,0.113 -0.38,0.218l-0.028,-0.007c-0.101,-0.018 -0.379,-0.035 -0.833,-0.051c-0.481,-0.025 -0.768,-0.044 -0.861,-0.059l-0.027,-0.007c-0.307,-0.022 -0.517,-0.109 -0.631,-0.259c-0.181,-0.252 -0.345,-0.511 -0.491,-0.777c0.003,-0.024 -0.001,-0.045 -0.012,-0.061c0.028,0.009 0.046,0.014 0.054,0.014c0.052,-0.02 0.089,-0.049 0.111,-0.086l0.072,-0.156c0.197,0.315 0.402,0.527 0.617,0.635l-0.028,-0.007c0.207,0.142 0.511,0.205 0.914,0.189c0.357,0.007 0.637,-0.092 0.84,-0.298l0.008,-0.027c0.183,-0.193 0.271,-0.413 0.266,-0.658c0.027,-0.018 0.041,-0.034 0.042,-0.047c0.329,0.864 0.937,1.35 1.825,1.46c-0.051,0.035 -0.101,0.079 -0.154,0.134c-0.279,0.264 -0.429,0.603 -0.451,1.017c0.01,0.383 0.166,0.708 0.466,0.975l-0.027,-0.008c0.097,0.1 0.191,0.183 0.282,0.252l-14.428,0.61c-3.988,0.19 -6.179,-0.317 -6.572,-1.522c0.913,-1.058 2.715,-1.884 5.407,-2.476c-0.098,0.106 -0.182,0.24 -0.254,0.398l-0.027,-0.007c-0.36,0.013 -0.726,0.07 -1.098,0.169c-0.276,0.104 -0.652,0.304 -1.128,0.599l0.008,-0.026c-0.3,0.174 -0.561,0.346 -0.784,0.517c-0.124,-0.078 -0.269,-0.117 -0.436,-0.118l-0.007,0.027c-0.197,0.002 -0.37,0.063 -0.516,0.181m3.774,-2.92l0.026,0.008c0.027,-0.002 0.048,-0.006 0.062,-0.013c0.056,-0.018 0.109,-0.033 0.159,-0.044l0.02,0.034c0.029,0.014 0.056,0.021 0.081,0.023c0.195,-0.016 0.384,-0.033 0.569,-0.051c0.736,-0.078 1.238,-0.059 1.504,0.058c0.092,0.028 0.148,0.073 0.168,0.134c0.005,0.058 -0.014,0.13 -0.059,0.217c-0.6,0.019 -1.112,0.143 -1.533,0.373c-0.003,0.002 -0.015,0.008 -0.034,0.02l-0.008,0.027c-0.058,0.031 -0.116,0.064 -0.173,0.099c-0.006,-0.015 -0.022,-0.029 -0.047,-0.042c-0.026,-0.017 -0.064,-0.018 -0.116,-0.002c-2.947,0.633 -4.886,1.529 -5.816,2.687c-0.004,0.017 -0.009,0.035 -0.014,0.054c-0.006,0.024 -0.014,0.051 -0.022,0.082c0.327,1.405 2.619,2.008 6.874,1.809l14.161,-0.596c-0.659,0.147 -1.615,0.257 -2.867,0.332l-15.261,0.559c-2.498,-0.055 -4.253,-0.552 -5.266,-1.488c0.524,-1.776 3.055,-3.202 7.592,-4.28m-0.758,-0.439c0.011,-0.012 0.013,-0.021 0.007,-0.027c-0.011,-0.084 -0.052,-0.144 -0.126,-0.181c-0.57,-0.44 -0.811,-1.236 -0.725,-2.388c0,-0.029 -0.004,-0.049 -0.012,-0.062l0.007,-0.028c1.42,-0.608 2.629,-1.01 3.63,-1.205c-0.152,0.78 -1.098,1.429 -2.838,1.947c-0.041,0.002 -0.084,0.018 -0.13,0.052c-0.019,0.02 -0.038,0.054 -0.058,0.101c-0.148,0.333 -0.165,0.61 -0.05,0.834c0.089,0.238 0.304,0.413 0.646,0.526c0.55,0.164 1.481,0.144 2.793,-0.059c0.153,-0.029 0.293,-0.04 0.417,-0.033c0.032,-0.004 0.052,-0.008 0.062,-0.013c0.049,0.007 0.088,0.007 0.117,0.003c0.199,-0.065 0.401,-0.127 0.606,-0.186c0.011,0.021 0.015,0.041 0.012,0.061c0.031,0.028 0.064,0.047 0.101,0.057c0.616,0.155 1.102,0.589 1.459,1.302l-0.008,0.028c0.104,0.209 0.197,0.439 0.281,0.689l-0.027,-0.007c0.066,0.222 0.12,0.451 0.163,0.688c-0.02,1.345 -0.503,2.266 -1.451,2.761c-0.274,0.158 -0.588,0.277 -0.944,0.358c-0.793,0.051 -1.419,-0.05 -1.876,-0.306c-0.492,-0.24 -0.798,-0.655 -0.919,-1.243c-0.02,-0.108 -0.044,-0.232 -0.075,-0.371l-0.007,0.028c-0.002,-0.292 0.017,-0.54 0.056,-0.745c0.028,-0.167 0.067,-0.312 0.118,-0.436c0.14,-0.305 0.348,-0.531 0.623,-0.678c0.046,-0.026 0.072,-0.048 0.076,-0.067c0.401,-0.199 0.877,-0.304 1.43,-0.313c0.032,-0.001 0.053,-0.005 0.062,-0.012c0.034,-0.017 0.057,-0.031 0.069,-0.04c0.127,-0.201 0.171,-0.365 0.133,-0.49c-0.02,-0.162 -0.134,-0.281 -0.342,-0.355c-0.289,-0.132 -0.838,-0.155 -1.647,-0.068c-0.177,0.02 -0.357,0.039 -0.541,0.057c-0.029,-0.005 -0.062,0.006 -0.097,0.032c-0.004,0.018 -0.009,0.037 -0.015,0.055c-0.016,0.004 -0.036,0.008 -0.062,0.012c0.003,-0.024 -0.011,-0.047 -0.039,-0.069c-0.015,-0.029 -0.039,-0.045 -0.075,-0.049c-0.306,-0.01 -0.556,-0.059 -0.75,-0.146c-0.012,-0.005 -0.03,-0.01 -0.054,-0.014m-14.78,11.591c0.007,-0.02 0,-0.031 -0.019,-0.035c-0.544,-0.529 -1.328,-0.547 -2.353,-0.055l-0.007,0.028c-1.65,0.958 -3.008,1.009 -4.074,0.15c0.013,-0.017 0.027,-0.033 0.042,-0.047c2.819,-1.153 5.462,-2.743 7.931,-4.772c4.109,-3.402 8.455,-5.592 13.035,-6.571c0.047,-0.007 0.08,-0.017 0.097,-0.032c0.022,0.004 0.041,0.009 0.054,0.015c0.13,0.061 0.282,0.111 0.456,0.153c-4.42,1.072 -6.872,2.5 -7.36,4.284c0.007,0.017 0.011,0.037 0.013,0.062c0.007,-0.001 0.016,0.001 0.027,0.007c1.006,0.988 2.793,1.513 5.359,1.573l15.262,-0.559l0.028,0.007c1.871,-0.11 3.096,-0.313 3.672,-0.61l0.028,0.007c0.011,0.004 0.018,0.016 0.019,0.035c0.041,0.021 0.078,0.032 0.109,0.03c0.417,0.004 0.767,-0.135 1.048,-0.416c0.305,-0.296 0.459,-0.644 0.46,-1.045c0.005,-0.434 -0.152,-0.788 -0.472,-1.063c-0.272,-0.316 -0.618,-0.478 -1.037,-0.487l-0.007,0.028c-0.158,0.006 -0.3,0.025 -0.425,0.06c-0.037,-0.001 -0.071,0.019 -0.104,0.059c-0.015,-0.029 -0.039,-0.045 -0.074,-0.05c-0.958,-0.045 -1.57,-0.552 -1.838,-1.521c0.054,-0.129 0.08,-0.259 0.076,-0.389c0.004,-0.048 0.005,-0.087 0.003,-0.116l30.95,0.108c0.844,0.553 1.102,1.363 0.772,2.43c-0.004,0.018 -0.009,0.035 -0.015,0.054c-0.023,0.001 -0.055,0.013 -0.096,0.033c-0.023,0.008 -0.049,0.031 -0.077,0.067c-0.61,0.664 -1.522,1.293 -2.733,1.887c-0.178,0.06 -0.413,0.133 -0.702,0.219c-0.065,0.006 -0.122,0.039 -0.174,0.099c-0.004,0.016 -0.009,0.034 -0.015,0.054l-0.034,0.02c-0.241,0.016 -0.504,0.052 -0.789,0.107l-0.028,-0.007c-0.01,0 -0.021,0.007 -0.034,0.02c-0.007,-0.007 -0.016,-0.01 -0.027,-0.008c-0.147,0.03 -0.319,0.052 -0.514,0.066c-0.023,-0.003 -0.044,0.001 -0.063,0.012c-1.114,0.115 -2.504,0.176 -4.17,0.182c-0.338,0.005 -0.707,0.002 -1.108,-0.009l-0.034,0.02c-0.861,0.065 -1.75,0.184 -2.669,0.356c-0.015,-0.001 -0.036,0.003 -0.062,0.013c-0.929,0.21 -1.863,0.492 -2.802,0.846c-0.036,0.012 -0.061,0.034 -0.076,0.067c-0.008,0.021 -0.016,0.048 -0.023,0.081l-0.581,-0.012c-0.008,-0.008 -0.026,-0.012 -0.054,-0.014c-2.158,0.404 -6.779,0.736 -13.861,0.999c-0.07,-0.008 -0.134,0.014 -0.193,0.064c-0.022,0.033 -0.05,0.064 -0.084,0.094l-0.028,-0.007c-0.013,-0.034 -0.037,-0.05 -0.074,-0.05c-2.318,-0.027 -4.626,0.008 -6.926,0.106c-1.272,0.043 -2.546,0.106 -3.821,0.189c-0.004,-0.005 -0.013,-0.007 -0.028,-0.007l-0.027,-0.008c-0.182,0.012 -0.372,0.028 -0.569,0.05c-0.594,0.022 -1.188,0.055 -1.781,0.102c-0.03,-0.009 -0.06,-0.007 -0.089,0.004c-0.197,0.016 -0.387,0.033 -0.568,0.05l-0.035,0.02c-0.009,-0.009 -0.017,-0.011 -0.027,-0.007c-0.445,0.03 -0.875,0.069 -1.289,0.117c-0.009,-0.007 -0.017,-0.009 -0.027,-0.007c-0.637,0.053 -1.267,0.115 -1.892,0.188c-0.023,-0.003 -0.044,0.002 -0.062,0.011c-1.128,0.099 -2.25,0.214 -3.366,0.343c-0.482,0.071 -0.961,0.184 -1.437,0.34l-0.008,0.028l-0.027,-0.008c-0.015,0.005 -0.027,0.012 -0.035,0.02c-1.651,0.538 -3.076,1.554 -4.276,3.047c-0.008,0.025 -0.015,0.052 -0.022,0.081l-0.027,-0.007c-0.051,-0.008 -0.102,-0.002 -0.151,0.018c-0.045,0.018 -0.082,0.046 -0.111,0.086c-1.125,1.438 -2.06,3.298 -2.801,5.581c-0.163,-0.184 -0.378,-0.36 -0.647,-0.527c-1.013,-0.561 -1.28,-1.695 -0.8,-3.402l0.008,-0.027c0.59,-1.356 0.688,-2.323 0.29,-2.902m-0.821,0.01c-0.056,-0.002 -0.179,0.023 -0.37,0.075c-0.216,0.015 -0.348,0.037 -0.398,0.067c-0.196,0.088 -0.374,0.205 -0.535,0.352c-0.219,0.135 -0.322,0.263 -0.308,0.383c0.007,0.042 0.019,0.103 0.036,0.186c-0.148,0.06 -0.406,0.185 -0.773,0.374c-0.222,0.107 -0.403,0.164 -0.544,0.174c-0.179,-0.006 -0.311,-0.022 -0.396,-0.049c-0.071,-0.063 -0.141,-0.16 -0.213,-0.291c-0.005,-0.027 -0.021,-0.04 -0.047,-0.042c-0.003,-0.012 -0.011,-0.014 -0.027,-0.008c-0.019,0.001 -0.04,0.005 -0.062,0.012c0,0.015 -0.004,0.033 -0.015,0.055c0.02,0.229 -0.078,0.447 -0.293,0.65c-0.2,0.198 -0.441,0.298 -0.725,0.301c-0.216,-0.011 -0.404,-0.034 -0.566,-0.067c-0.202,-0.085 -0.411,-0.211 -0.629,-0.375c-0.151,-0.127 -0.295,-0.312 -0.433,-0.556c-0.054,-0.087 -0.094,-0.156 -0.119,-0.208c-0.004,-0.027 -0.019,-0.041 -0.048,-0.041c0.028,-0.032 0.044,-0.057 0.05,-0.075l0.007,-0.027c0.149,-0.208 0.334,-0.422 0.554,-0.639l0.019,0.034c1.156,0.964 2.628,0.926 4.416,-0.115c0.884,-0.436 1.556,-0.438 2.018,-0.007c0.307,0.537 0.194,1.422 -0.34,2.655c-0.533,1.889 -0.23,3.14 0.909,3.754c0.283,0.165 0.501,0.331 0.653,0.499c0.021,0.017 0.036,0.031 0.048,0.041c-0.005,0.022 -0.012,0.05 -0.023,0.083c-0.129,0.196 -0.282,0.368 -0.462,0.517c-0.129,-0.152 -0.265,-0.296 -0.408,-0.433c-0.318,-0.266 -0.555,-0.467 -0.713,-0.603c-0.57,-0.555 -0.865,-1.297 -0.886,-2.228c0.018,-0.301 0.04,-0.49 0.066,-0.566l0.007,-0.027c0.047,-0.13 0.15,-0.258 0.309,-0.384c0.018,-0.023 0.023,-0.041 0.015,-0.054c0.013,-0.025 0.009,-0.045 -0.012,-0.062c-0.005,-0.025 -0.021,-0.039 -0.047,-0.042c-0.002,-0.016 -0.011,-0.018 -0.028,-0.008c-0.073,-0.003 -0.148,-0.053 -0.222,-0.148l0.027,0.008c-0.075,-0.127 -0.12,-0.285 -0.134,-0.476c0.006,-0.191 0.027,-0.341 0.064,-0.449l0.007,-0.028c0.038,-0.106 0.071,-0.224 0.096,-0.353c0.017,-0.018 0.022,-0.036 0.015,-0.055c-0.012,-0.015 -0.031,-0.02 -0.054,-0.015c-0.019,-0.017 -0.036,-0.021 -0.055,-0.015c-0.015,0.013 -0.029,0.029 -0.042,0.048c-0.022,0.117 -0.054,0.235 -0.096,0.353c-0.046,0.129 -0.072,0.297 -0.079,0.505c0.01,0.225 0.056,0.413 0.139,0.564c0.076,0.098 0.148,0.157 0.216,0.175c-0.122,0.134 -0.206,0.267 -0.254,0.398c-0.037,0.097 -0.063,0.304 -0.081,0.622c0.027,0.973 0.342,1.751 0.945,2.331c0.155,0.145 0.39,0.355 0.705,0.63l0.008,-0.027c0.134,0.134 0.261,0.276 0.381,0.425c-0.811,0.624 -1.972,0.776 -3.485,0.456c-0.029,-0.006 -0.068,-0.007 -0.116,-0.002c-0.028,0.01 -0.06,0.021 -0.097,0.032c-0.233,0.038 -0.473,0.06 -0.719,0.067c-0.014,-0.007 -0.032,-0.011 -0.055,-0.013c0,-0.036 -0.01,-0.068 -0.032,-0.098c-0.847,-1.073 -1.824,-2.031 -2.932,-2.871c-0.03,-0.033 -0.066,-0.043 -0.109,-0.029c-0.005,-0.054 -0.011,-0.105 -0.017,-0.151c-0.044,-0.231 -0.071,-0.454 -0.083,-0.666c0.146,0.093 0.277,0.186 0.392,0.282l0.027,0.008c0.209,0.127 0.405,0.268 0.586,0.421c-0.013,-0.022 -0.026,-0.045 -0.039,-0.068c0.007,-0.018 0.011,-0.036 0.015,-0.055l-0.008,0.027c0.004,0.013 0.008,0.034 0.013,0.062c0.008,0.009 0.015,0.02 0.019,0.034c0.031,0.002 0.052,-0.002 0.062,-0.012c0.028,-0.003 0.039,-0.01 0.035,-0.019c0.065,-0.134 0.207,-0.261 0.425,-0.382c0.072,-0.018 0.281,-0.108 0.628,-0.268l0.4,-0.183c0.058,-0.051 0.107,-0.087 0.146,-0.107l0.031,0.856c0.01,0.475 -0.017,0.751 -0.078,0.827l0.027,0.007c-0.026,0.023 -0.167,0.072 -0.42,0.149l-0.028,-0.008c-0.002,-0.004 -0.013,0.002 -0.034,0.02c-0.003,-0.004 -0.015,0.003 -0.035,0.02l-0.007,0.027c0.013,0.008 0.02,0.019 0.019,0.035c0.015,0.007 0.021,0.019 0.021,0.035l0.026,0.007c0.46,0.438 0.874,0.921 1.244,1.448l0.028,0.008c0.11,0.186 0.217,0.361 0.324,0.526c0.018,0.015 0.034,0.029 0.047,0.042c0.017,-0.005 0.029,-0.011 0.035,-0.02c0.025,-0.004 0.036,-0.011 0.034,-0.019c0.081,-0.12 0.162,-0.234 0.239,-0.345l-0.006,0.027c0.142,-0.131 0.315,-0.191 0.516,-0.18l0.028,0.007c0.106,-0.012 0.271,0.062 0.494,0.222c0.244,0.159 0.505,0.239 0.782,0.242c0.209,0.001 0.361,-0.056 0.455,-0.169c0.101,-0.109 0.144,-0.233 0.131,-0.374c0.008,-0.207 -0.048,-0.359 -0.169,-0.454c-0.111,-0.122 -0.29,-0.18 -0.537,-0.176c-0.058,-0.007 -0.097,-0.008 -0.116,-0.002c-0.018,-0.016 -0.036,-0.022 -0.054,-0.015c-0.016,0.013 -0.03,0.028 -0.043,0.047c0.001,0.023 0.006,0.044 0.013,0.062c0.013,0.015 0.028,0.03 0.047,0.042c0.022,-0.002 0.069,0.001 0.143,0.01c0.206,-0.01 0.351,0.03 0.436,0.118c0.101,0.081 0.144,0.209 0.129,0.386c0.018,0.102 -0.007,0.193 -0.074,0.272c-0.074,0.075 -0.191,0.112 -0.351,0.109c-0.247,-0.004 -0.481,-0.076 -0.701,-0.219c-0.266,-0.187 -0.467,-0.271 -0.603,-0.252c-0.24,-0.012 -0.445,0.059 -0.613,0.213l-0.028,-0.007c-0.056,0.086 -0.119,0.176 -0.19,0.27c-0.068,-0.141 -0.147,-0.279 -0.238,-0.416c0.03,-0.089 0.088,-0.161 0.176,-0.215l0.007,-0.027c0.097,-0.091 0.207,-0.139 0.331,-0.144l0.008,-0.027c0.307,-0.059 0.486,-0.107 0.537,-0.147l0.195,-0.18c0.129,-0.109 0.201,-0.196 0.217,-0.263c0.057,-0.016 0.08,-0.068 0.072,-0.156c0.015,-0.17 -0.027,-0.376 -0.125,-0.618c-0.107,-0.356 -0.229,-0.516 -0.366,-0.479c-0.039,-0.011 -0.109,0.067 -0.21,0.235c-0.036,0.115 -0.093,0.177 -0.168,0.188c-0.236,-0.011 -0.365,-0.182 -0.387,-0.514c0.011,-0.28 0.067,-0.489 0.17,-0.626c0.125,-0.12 0.294,-0.171 0.509,-0.154l0.028,0.007c0.062,-0.011 0.197,-0.072 0.401,-0.183c0.022,-0.002 0.034,-0.008 0.034,-0.02c0.04,-0.046 0.128,-0.119 0.264,-0.22c0.124,-0.115 0.182,-0.187 0.176,-0.215l0.007,-0.028c0.012,-0.077 -0.083,-0.162 -0.282,-0.252c-0.112,-0.04 -0.223,-0.061 -0.334,-0.061c-0.108,-0.01 -0.207,-0.008 -0.295,0.007c0.08,-0.062 0.146,-0.122 0.195,-0.181c0.242,-0.272 0.386,-0.477 0.43,-0.613c0.064,-0.118 0.092,-0.257 0.084,-0.416l0.007,-0.027c-0.035,-0.189 -0.053,-0.301 -0.054,-0.337c0.014,-0.013 0.016,-0.022 0.007,-0.026c-0.005,-0.027 -0.021,-0.041 -0.047,-0.043c-0.003,-0.011 -0.011,-0.014 -0.027,-0.007c-0.346,0.084 -0.687,0.264 -1.024,0.54c-0.109,0.112 -0.221,0.237 -0.336,0.376c-0.004,-0.14 -0.074,-0.276 -0.21,-0.408c-0.134,-0.126 -0.322,-0.187 -0.565,-0.182c-0.135,-0.01 -0.222,-0.013 -0.259,-0.013c-0.013,-0.011 -0.031,-0.017 -0.055,-0.013c-0.067,0.024 -0.142,0.082 -0.222,0.173c0.001,0.014 -0.004,0.032 -0.015,0.054c0.013,0.011 0.02,0.022 0.019,0.035c0.015,0.012 0.021,0.024 0.021,0.034c0.112,0.04 0.213,0.067 0.299,0.081c0.036,0.031 0.055,0.104 0.057,0.221c-0.01,0.231 -0.169,0.383 -0.474,0.455c-0.224,0.049 -0.395,0.109 -0.517,0.181c-0.013,-0.1 -0.046,-0.197 -0.097,-0.29c-0.1,-0.166 -0.226,-0.24 -0.378,-0.219c-0.132,-0.002 -0.262,0.011 -0.391,0.04l-0.028,-0.007c-0.266,0.108 -0.407,0.234 -0.425,0.381c0.025,0.104 0.057,0.239 0.095,0.405l-0.007,0.028c0.049,0.149 0.062,0.279 0.039,0.391c0.004,0.152 -0.016,0.263 -0.061,0.334l0.034,-0.02c-0.101,0.098 -0.175,0.156 -0.222,0.173c-0.124,-0.083 -0.266,-0.171 -0.426,-0.261c0.13,-0.159 0.191,-0.279 0.185,-0.36l0.008,-0.027c0.087,-0.145 0.123,-0.349 0.108,-0.613c0.013,-0.396 -0.058,-0.707 -0.214,-0.935c-0.131,-0.212 -0.259,-0.315 -0.383,-0.309c-0.118,-0.009 -0.182,0.013 -0.193,0.064c0.003,0.021 -0.016,0.094 -0.06,0.219c0.009,0.012 0.016,0.024 0.02,0.034l0.018,0.151l-0.027,-0.008l-0.017,0.172c0.008,0.012 0.015,0.024 0.019,0.034c0.035,0.05 0.073,0.09 0.114,0.118c0.014,0.017 0.03,0.031 0.047,0.042c0.019,-0.013 0.032,-0.029 0.042,-0.047c0.017,-0.014 0.022,-0.032 0.015,-0.054c0.005,-0.014 -0.002,-0.025 -0.02,-0.034c-0.018,-0.024 -0.041,-0.049 -0.067,-0.077l0.018,-0.171l-0.025,-0.124c0.043,-0.124 0.063,-0.197 0.059,-0.217c0.006,0.02 0.022,0.034 0.047,0.042c0.089,0.006 0.183,0.09 0.282,0.252c0.137,0.202 0.197,0.482 0.182,0.838c0.014,0.254 -0.02,0.449 -0.101,0.587c0.006,0.001 0.004,0.01 -0.008,0.027c0.007,0.047 -0.024,0.125 -0.093,0.237c-0.006,-0.038 -0.017,-0.071 -0.033,-0.096c-0.638,-1.07 -0.686,-2.077 -0.144,-3.02c0.036,0.058 0.075,0.127 0.119,0.207c0.152,0.264 0.313,0.463 0.48,0.599c0.237,0.172 0.464,0.302 0.684,0.389c0.169,0.038 0.366,0.062 0.594,0.074c0.323,-0.008 0.599,-0.128 0.828,-0.359l-0.008,0.027c0.184,-0.17 0.299,-0.344 0.346,-0.52c0.044,0.057 0.088,0.108 0.134,0.154c0.101,0.041 0.26,0.064 0.477,0.071c0.156,-0.008 0.358,-0.07 0.606,-0.186c0.418,-0.217 0.699,-0.355 0.843,-0.414c0.023,-0.002 0.034,-0.008 0.035,-0.02c0.016,-0.01 0.019,-0.019 0.007,-0.028c0.013,-0.017 0.015,-0.026 0.008,-0.026c-0.037,-0.099 -0.058,-0.163 -0.065,-0.194l0.008,-0.027c0.007,-0.075 0.089,-0.16 0.244,-0.255c0.151,-0.139 0.317,-0.249 0.499,-0.332l0.028,0.008c0.041,-0.024 0.153,-0.041 0.336,-0.055l0.007,-0.028c0.185,-0.04 0.306,-0.056 0.364,-0.047c0.199,0.011 0.293,0.202 0.283,0.574c0.003,0.363 -0.073,0.644 -0.229,0.844c-0.1,0.159 -0.229,0.242 -0.389,0.245c-0.007,-0.008 -0.018,-0.002 -0.034,0.02c-0.014,0.004 -0.028,0.02 -0.042,0.046c0.009,0.013 0.016,0.024 0.019,0.035c0.024,0.019 0.039,0.033 0.048,0.042c0.21,0.007 0.383,-0.092 0.519,-0.297c0.172,-0.218 0.255,-0.526 0.251,-0.926c0.011,-0.49 -0.137,-0.735 -0.444,-0.734m28.441,-8.084c0.032,0.041 0.059,0.087 0.079,0.138c0.016,0.037 0.039,0.063 0.067,0.076c0.026,0.01 0.044,0.015 0.054,0.015c-0.011,0.008 -0.025,0.023 -0.042,0.047c-0.028,0.015 -0.045,0.039 -0.049,0.075c-0.009,0.22 -0.09,0.413 -0.244,0.577l0.027,0.007c-0.156,0.133 -0.341,0.209 -0.559,0.228l0.035,-0.02c-0.189,-0.005 -0.349,-0.058 -0.483,-0.161l1.115,-0.982m-1.39,0.382c0.005,-0.203 0.075,-0.389 0.21,-0.557l-0.008,0.028c0.156,-0.146 0.34,-0.213 0.552,-0.202c0.207,-0.015 0.374,0.05 0.502,0.195c0.02,0.017 0.035,0.031 0.047,0.043l-1.142,0.975c-0.117,-0.133 -0.171,-0.293 -0.161,-0.482m6.949,0.455c-0.132,0.14 -0.309,0.218 -0.532,0.236c-0.167,-0.004 -0.318,-0.055 -0.455,-0.153l1.043,-1.149c0.137,0.146 0.198,0.318 0.181,0.517c0.009,0.206 -0.07,0.389 -0.237,0.549m-5.435,-2.587c-0.2,-0.105 -0.383,-0.33 -0.548,-0.674l0.312,-0.5c0.028,0.259 0.13,0.492 0.307,0.697c0.251,0.234 0.549,0.354 0.896,0.361c0.21,0.002 0.398,-0.044 0.564,-0.139c-0.03,0.071 -0.077,0.136 -0.141,0.195c-0.145,0.148 -0.35,0.219 -0.614,0.213l-0.027,-0.007c-0.328,0.019 -0.58,-0.02 -0.756,-0.118l0.007,-0.028m0.146,-1.83c0.048,-0.081 0.094,-0.146 0.141,-0.196c0.194,-0.192 0.424,-0.285 0.69,-0.28c0.26,0.004 0.478,0.102 0.651,0.295l0.027,0.006c0.053,0.038 0.097,0.088 0.134,0.154c0.038,0.067 0.073,0.154 0.104,0.262c0.003,0.013 0.007,0.034 0.013,0.062c0.012,0.051 0.015,0.11 0.009,0.177l-0.007,0.028c0.005,0.099 -0.013,0.201 -0.054,0.307c-0.007,0.007 -0.012,0.025 -0.015,0.054c-0.046,0.083 -0.118,0.171 -0.217,0.263c0.001,0.004 -0.002,0.013 -0.008,0.027c-0.182,0.178 -0.4,0.265 -0.655,0.26c-0.258,-0.004 -0.487,-0.095 -0.685,-0.274c-0.157,-0.187 -0.235,-0.403 -0.234,-0.647c-0.002,-0.175 0.028,-0.322 0.091,-0.443c0.012,-0.024 0.016,-0.042 0.015,-0.055m4.208,4.416l-0.028,-0.007c-0.126,-0.16 -0.193,-0.344 -0.2,-0.552c0.013,-0.223 0.083,-0.409 0.209,-0.556l-0.007,0.027c0.169,-0.162 0.356,-0.238 0.558,-0.228l0.028,0.007c0.196,-0.022 0.357,0.031 0.483,0.161l-1.043,1.148m-7.249,-1.501l0.027,0.007l-0.027,-0.007c0.037,-0.097 0.052,-0.259 0.044,-0.485c0.014,-0.013 0.025,-0.195 0.031,-0.547l0.473,-0.018l0.022,0.562c0.011,0.168 0.004,0.264 -0.019,0.287c-0.016,0.012 -0.03,0.028 -0.042,0.047c-0.003,0 -0.173,0.052 -0.509,0.154m-12.575,1.64l-0.027,-0.008c-0.096,-0.014 -0.207,-0.074 -0.331,-0.178c-0.068,-0.083 -0.109,-0.182 -0.124,-0.296l1.019,0.014c-0.012,0.161 -0.064,0.283 -0.159,0.366c-0.009,-0.01 -0.03,-0.006 -0.061,0.012c-0.13,0.074 -0.236,0.104 -0.317,0.09m0.021,-1.047c0.117,0.001 0.217,0.028 0.3,0.082c0.022,0.008 0.04,0.013 0.054,0.014l0.02,0.035c0.089,0.089 0.139,0.191 0.151,0.304l-1.026,0.014c0.015,-0.125 0.063,-0.228 0.143,-0.312c0.111,-0.087 0.23,-0.132 0.358,-0.137m9.115,-1.381c0,-0.015 -0.007,-0.027 -0.021,-0.035c-0.033,-0.195 -0.07,-0.38 -0.111,-0.557c0.098,-0.021 0.208,-0.031 0.329,-0.027c0.119,-0.007 0.205,-0.003 0.259,0.012l0.02,0.035l-0.19,0.912c0,0.329 0.184,0.623 0.55,0.881c0.312,0.162 0.457,0.309 0.436,0.44c0.01,0.017 0.015,0.037 0.013,0.062c-0.035,-0.002 -0.086,0.003 -0.151,0.017c-0.165,-0.008 -0.265,-0.035 -0.299,-0.082c-0.022,-0.039 -0.036,-0.13 -0.042,-0.274c0.012,-0.017 0.015,-0.027 0.007,-0.027c-0.006,-0.024 -0.022,-0.038 -0.047,-0.042c0.003,-0.013 -0.006,-0.015 -0.027,-0.008l-0.698,-0.014c-0.14,-0.004 -0.216,0.17 -0.229,0.522c0.013,0.271 0.074,0.404 0.183,0.401l0.008,-0.027c0.037,-0.005 0.115,-0.003 0.232,0.004c0.75,-0.001 1.197,0.004 1.34,0.014l0.028,0.007l0.685,-0.047l0.007,-0.028l0.289,-0.097c-0.033,0.111 -0.072,0.256 -0.118,0.436c-0.086,0.21 -0.33,0.319 -0.732,0.327c-0.392,-0.039 -0.972,-0.021 -1.738,0.054c-0.561,0.014 -1.001,0.022 -1.321,0.021c0.873,-0.562 1.319,-1.522 1.338,-2.88m-4.436,8.907c0.001,0.155 0.006,0.312 0.018,0.472c-0.043,-0.122 -0.079,-0.239 -0.109,-0.351c-0.185,-0.714 -0.197,-1.458 -0.038,-2.232c0.108,-0.007 0.218,-0.016 0.329,-0.027c-0.161,0.634 -0.228,1.346 -0.2,2.138m4.454,-1.655l-0.008,0.027c-0.868,-0.188 -1.362,-0.41 -1.485,-0.666c1.33,-0.093 2.654,-0.162 3.973,-0.207c2.139,-0.072 4.279,-0.096 6.419,-0.068c-0.897,0.555 -2.356,0.724 -4.376,0.506c-0.499,-0.051 -0.93,-0.042 -1.294,0.029l-0.007,0.027c-0.044,0.004 -0.095,0.01 -0.151,0.018c-0.028,0.018 -0.063,0.038 -0.104,0.059c-0.008,-0.029 -0.024,-0.043 -0.047,-0.042c-1.461,-0.529 -2.434,-0.424 -2.92,0.317m-6.351,3.798c-0.296,-0.133 -0.587,-0.28 -0.874,-0.442l0.306,-0.589c0.018,-0.031 0.016,-0.061 -0.005,-0.089c0.002,-0.045 -0.018,-0.08 -0.06,-0.103c-0.381,-0.226 -0.61,-0.492 -0.688,-0.801c-0.043,-0.291 0.046,-0.618 0.266,-0.98c0.516,0.041 0.896,-0.03 1.14,-0.216c0.261,-0.196 0.392,-0.502 0.395,-0.916c0.325,-0.033 0.653,-0.06 0.987,-0.082c-0.153,0.842 -0.12,1.65 0.101,2.424c0.119,0.357 0.267,0.709 0.445,1.055c0.027,0.023 0.052,0.04 0.074,0.049c0.043,0.014 0.081,0.015 0.116,0.002c0.031,-0.008 0.055,-0.021 0.069,-0.039c0.018,-0.04 0.019,-0.078 0.003,-0.116c-0.072,-0.577 -0.111,-1.114 -0.119,-1.61c0.011,-0.687 0.089,-1.298 0.236,-1.836c0.483,-0.042 0.969,-0.076 1.459,-0.1c0.234,-0.01 0.468,-0.014 0.705,-0.013c0.106,0.364 0.659,0.66 1.659,0.889c0.075,0.301 0.202,0.589 0.379,0.863c0.124,0.168 0.288,0.319 0.49,0.454c0.129,0.51 0.137,0.95 0.022,1.321c-0.24,0.712 -0.976,1.126 -2.208,1.241c-1.88,0.301 -3.513,0.179 -4.898,-0.366m-8.353,-1.421c0.005,0.001 0.002,0.01 -0.007,0.027c-0.673,0.718 -1.394,1.078 -2.164,1.078c1.144,-1.419 2.497,-2.386 4.062,-2.901c1.366,0.089 2.491,0.501 3.375,1.239c0.021,0.018 0.037,0.032 0.047,0.042l0.027,0.008c0.125,0.093 0.241,0.203 0.35,0.328l0.007,-0.027c0.468,0.547 0.97,0.995 1.505,1.344c0.312,0.194 0.637,0.36 0.975,0.499c1.428,0.605 3.134,0.746 5.116,0.425l-0.027,-0.007c1.38,-0.128 2.199,-0.597 2.457,-1.408l0.028,0.007c0.119,-0.017 0.242,-0.042 0.371,-0.074c0.036,0.001 0.073,0.01 0.108,0.03c-0.207,0.348 -0.459,0.699 -0.753,1.051l-0.034,0.021c-0.37,0.54 -0.865,0.962 -1.483,1.262c-0.058,-0.214 -0.092,-0.34 -0.102,-0.378l-0.007,0.027c0.019,-0.119 0.114,-0.181 0.284,-0.186c0.112,0.001 0.226,0.012 0.341,0.034l0.027,0.008c0.075,-0.013 0.142,-0.044 0.201,-0.092c0.108,-0.084 0.176,-0.153 0.202,-0.208c0.017,-0.01 0.019,-0.019 0.008,-0.027c0.014,-0.022 0.019,-0.04 0.015,-0.054l-0.005,-0.089c-0.018,-0.045 -0.091,-0.064 -0.218,-0.06c-0.087,-0.007 -0.165,0.031 -0.235,0.112c-0.017,0.015 -0.031,0.031 -0.042,0.047c0.014,0.019 0.029,0.032 0.047,0.042c0.014,0.016 0.03,0.031 0.047,0.042c0.019,-0.014 0.032,-0.029 0.042,-0.047c0.042,-0.044 0.085,-0.061 0.131,-0.052l0.089,-0.005l-0.007,0.027c-0.028,0.039 -0.081,0.093 -0.161,0.161c-0.039,0.023 -0.082,0.041 -0.131,0.052c-0.125,-0.023 -0.247,-0.037 -0.369,-0.042c-0.265,0.014 -0.401,0.123 -0.41,0.327l0.027,0.008c0.007,0.044 0.038,0.179 0.094,0.405c-0.458,0.19 -0.98,0.322 -1.567,0.393c0.076,-0.074 0.105,-0.145 0.086,-0.211c-0.057,-0.192 -0.078,-0.403 -0.062,-0.63c0.013,-0.018 0.015,-0.027 0.007,-0.028c-0.002,-0.022 -0.008,-0.034 -0.02,-0.034c-0.01,-0.016 -0.028,-0.021 -0.054,-0.015l-0.582,-0.012c-0.004,-0.009 -0.013,-0.012 -0.027,-0.008c-0.011,0.011 -0.025,0.026 -0.042,0.048c0.004,0.006 0.002,0.016 -0.007,0.027l0,0.321c0.009,0.014 0.016,0.025 0.02,0.036c0.012,0.02 0.017,0.041 0.012,0.061l-0.205,0.003c-0.039,-0.015 -0.075,-0.025 -0.109,-0.03c-0.047,-0.215 -0.069,-0.348 -0.067,-0.398c0.014,-0.013 0.017,-0.022 0.008,-0.027c-0.005,-0.026 -0.021,-0.041 -0.047,-0.042c-0.008,-0.013 -0.026,-0.018 -0.055,-0.015c-0.161,0.054 -0.278,0.09 -0.351,0.109l0.027,0.008c-0.138,0.008 -0.218,0.084 -0.237,0.228l0.027,0.007c0.006,0.049 0.036,0.116 0.092,0.2c0.044,0.068 0.068,0.124 0.072,0.166c0.005,0.027 -0.038,0.043 -0.132,0.052c-0.06,-0.01 -0.112,-0.034 -0.155,-0.072c-0.05,-0.081 -0.073,-0.175 -0.07,-0.282c0.018,-0.156 0,-0.268 -0.054,-0.336c-0.032,-0.097 -0.097,-0.144 -0.196,-0.141l-0.028,-0.007c-0.021,-0.012 -0.075,0.011 -0.165,0.072c-0.07,0.032 -0.161,0.046 -0.275,0.042c-0.004,-0.01 -0.013,-0.012 -0.027,-0.008c-0.011,0.01 -0.026,0.025 -0.042,0.048c0.008,0.007 0.015,0.019 0.02,0.035c0.004,0.04 0.009,0.129 0.015,0.266l0.013,0.062c-0.016,0.012 -0.03,0.028 -0.042,0.047c-0.002,0.008 -0.034,0.018 -0.097,0.033c-0.174,-0.026 -0.392,-0.124 -0.651,-0.294c-0.229,-0.175 -0.35,-0.305 -0.361,-0.391l0.007,-0.026l0.003,-0.117l0.026,0.007c0.174,0.1 0.305,0.155 0.394,0.165c0.03,-0.004 0.051,-0.008 0.062,-0.012c0.019,-0.023 0.023,-0.041 0.015,-0.054c0.013,-0.025 0.009,-0.046 -0.012,-0.062c-0.005,-0.014 -0.024,-0.019 -0.055,-0.015c-0.078,-0.015 -0.2,-0.068 -0.367,-0.157c-0.001,-0.013 -0.01,-0.016 -0.027,-0.008l-0.123,0.025c-0.02,0 -0.04,0.004 -0.062,0.012c-0.002,0.019 -0.006,0.037 -0.015,0.055l0.01,0.178c0,0.099 0.076,0.217 0.225,0.353c-0.248,-0.166 -0.509,-0.354 -0.782,-0.563c-0.713,-0.608 -1.497,-1.415 -2.352,-2.422c-0.008,-0.021 -0.023,-0.034 -0.047,-0.041c-1.912,-1.238 -3.712,-1.103 -5.4,0.403m9.781,2.832l0.008,-0.027c-0.005,-0.076 -0.017,-0.138 -0.037,-0.186c0.101,0 0.183,-0.016 0.247,-0.049l0.027,0.007l0.077,-0.067c0.063,-0.007 0.106,0.014 0.129,0.064c0.03,0.053 0.035,0.142 0.015,0.268c-0.007,0.144 0.027,0.27 0.101,0.378c0.065,0.07 0.15,0.112 0.258,0.128c0.205,-0.008 0.3,-0.07 0.284,-0.185l0.008,-0.028c-0.004,-0.048 -0.032,-0.123 -0.085,-0.227l-0.027,-0.008c-0.032,-0.047 -0.062,-0.084 -0.086,-0.111c0.016,-0.061 0.052,-0.09 0.11,-0.086l0.008,-0.028c0.06,-0.014 0.146,-0.04 0.254,-0.077c0.02,0.09 0.051,0.226 0.095,0.406c0,0.02 0.004,0.041 0.012,0.062c0.021,-0.002 0.041,-0.006 0.062,-0.013c0.024,0.001 0.048,0.017 0.075,0.05c0.019,0.001 0.037,0.006 0.054,0.015l0.384,-0.013c0.015,-0.01 0.027,-0.018 0.034,-0.02c0.016,-0.024 0.022,-0.042 0.014,-0.054c0.017,-0.023 0.022,-0.041 0.015,-0.055c-0.024,-0.043 -0.06,-0.092 -0.106,-0.146l0.005,-0.233l0.438,0.003c-0.018,0.229 0.003,0.44 0.062,0.631l-0.019,-0.035c0.003,0.032 -0.037,0.071 -0.119,0.114c-0.016,0.012 -0.03,0.028 -0.043,0.047l-0.007,0.027c-0.59,0.048 -1.255,0.023 -1.996,-0.075c-0.204,-0.049 -0.426,-0.129 -0.666,-0.239c0.059,0.016 0.104,0.028 0.136,0.037l0.028,0.007c0.11,-0.023 0.177,-0.053 0.2,-0.091c0.045,-0.028 0.062,-0.091 0.051,-0.191m6.178,-3.699l-0.007,0.027c0.252,-0.053 0.403,-0.07 0.452,-0.052c0.137,-0.008 0.24,0.01 0.307,0.054c0.031,0.001 0.051,-0.003 0.062,-0.012l0.027,0.007c-0.002,0.005 -0.005,0.014 -0.007,0.027c-0.093,0.406 -0.258,0.839 -0.498,1.297c-0.052,-0.024 -0.107,-0.039 -0.164,-0.045c-0.012,-0.012 -0.031,-0.017 -0.054,-0.014c-0.103,0.037 -0.206,0.058 -0.309,0.061c0.092,-0.368 0.071,-0.793 -0.064,-1.273c0.075,-0.018 0.16,-0.043 0.255,-0.077m-0.307,-0.054c-0.009,-0.023 -0.025,-0.037 -0.046,-0.042l-0.02,-0.034c-0.137,-0.103 -0.254,-0.212 -0.349,-0.329c0.273,-0.137 0.45,-0.216 0.531,-0.236c0.067,-0.016 0.225,-0.022 0.472,-0.017c0.167,-0.004 0.342,-0.005 0.527,-0.004c0.032,-0.009 0.055,-0.022 0.07,-0.039c0.009,-0.006 0.011,-0.015 0.006,-0.027c0.017,0.046 0.023,0.097 0.018,0.15l-0.007,0.027c0.006,0.167 -0.002,0.341 -0.024,0.52c-0.012,-0.011 -0.03,-0.015 -0.054,-0.015c-0.082,-0.054 -0.202,-0.077 -0.362,-0.068c-0.056,-0.022 -0.216,-0.007 -0.48,0.044l-0.027,-0.007c-0.089,0.028 -0.163,0.047 -0.22,0.057c-0.008,-0.006 -0.02,0.001 -0.035,0.02m-0.468,-0.536l-0.007,0.027c-0.168,-0.263 -0.29,-0.53 -0.367,-0.801c0.009,-0.017 0.012,-0.026 0.007,-0.028l0.008,-0.027c0.457,-0.668 1.36,-0.764 2.708,-0.287c-0.302,0.153 -0.524,0.395 -0.665,0.726c-0.02,0.045 -0.026,0.102 -0.017,0.171c-0.001,-0.014 -0.008,-0.025 -0.019,-0.035c-0.011,-0.016 -0.029,-0.02 -0.055,-0.015c-0.184,-0.002 -0.361,-0.001 -0.527,0.003c-0.277,-0.002 -0.455,0.008 -0.534,0.03l0.027,0.008c-0.084,0.013 -0.271,0.089 -0.559,0.228m0.273,0.717c0.024,0.004 0.041,0.008 0.055,0.015l0.019,0.034l-0.074,-0.049m-6.882,-15.985c0.052,0.034 0.102,0.067 0.148,0.099l-1.493,0.763c0.037,-0.062 0.061,-0.114 0.072,-0.156c0.034,-0.118 0.025,-0.227 -0.028,-0.329c-0.005,-0.024 -0.019,-0.047 -0.04,-0.069l1.306,-0.288c0.014,-0.003 0.026,-0.009 0.035,-0.02m-1.293,-1.374c0.017,0.01 0.023,0.021 0.02,0.034c0.083,0.306 0.303,0.609 0.659,0.91c0.143,0.119 0.296,0.238 0.458,0.358l-1.279,0.296c0.017,-0.005 0.026,-0.003 0.028,0.007c0.021,0.016 0.025,0.037 0.012,0.062c0.009,0.014 0.004,0.032 -0.015,0.055c-0.011,0.003 -0.031,0.007 -0.062,0.012l-0.027,-0.007c0.048,0.042 0.074,0.088 0.079,0.138c0.024,0.054 0.026,0.114 0.011,0.178c-0.03,0.104 -0.12,0.216 -0.267,0.337c-0.04,-0.02 -0.082,-0.041 -0.129,-0.064c-0.002,-0.014 -0.009,-0.025 -0.019,-0.035l-0.028,-0.007c0.004,-0.023 0.01,-0.042 0.015,-0.055c0.02,-0.05 0.023,-0.098 0.009,-0.143c-0.01,-0.063 -0.036,-0.109 -0.079,-0.139c-0.042,-0.054 -0.087,-0.105 -0.134,-0.153c0.06,0.006 0.11,0.001 0.151,-0.017c0.082,-0.036 0.135,-0.09 0.161,-0.161c0.215,-0.583 0.265,-1.125 0.149,-1.626l0.287,0.02m-0.277,-0.163c-0.004,-0.008 -0.013,-0.01 -0.027,-0.008l-0.02,-0.034c-0.008,-0.055 -0.034,-0.101 -0.08,-0.139c-0.317,-0.268 -0.529,-0.53 -0.633,-0.786c0.361,-0.036 0.623,-0.14 0.786,-0.312c0.075,0.034 0.133,0.108 0.173,0.223c0.09,0.231 0.119,0.59 0.088,1.076l-0.287,-0.02m-19.899,23.234c-0.137,-0.117 -0.283,-0.224 -0.438,-0.323c0.056,-0.042 0.121,-0.102 0.195,-0.181c0.054,-0.079 0.079,-0.208 0.076,-0.388c0.023,-0.129 0.006,-0.28 -0.053,-0.453c-0.028,-0.164 -0.051,-0.296 -0.067,-0.398c0.034,-0.08 0.143,-0.158 0.326,-0.233c0.118,-0.021 0.237,-0.029 0.357,-0.02l0.027,0.007c0.09,-0.011 0.164,0.038 0.222,0.148c0.05,0.083 0.075,0.168 0.078,0.255l-0.037,0.136c0.003,0.018 0.007,0.038 0.012,0.062c0.009,0.008 0.016,0.02 0.02,0.035c0.031,0 0.052,-0.005 0.062,-0.013c0.026,-0.004 0.037,-0.011 0.034,-0.02c0.083,-0.126 0.285,-0.227 0.608,-0.302c0.394,-0.086 0.592,-0.276 0.594,-0.57l0.007,-0.027c-0.008,-0.188 -0.047,-0.296 -0.117,-0.324c-0.01,-0.016 -0.028,-0.02 -0.054,-0.015c-0.047,-0.01 -0.101,-0.025 -0.164,-0.044c0.024,-0.024 0.047,-0.037 0.07,-0.039c0.05,-0.002 0.137,0.002 0.26,0.012c0.208,-0.01 0.372,0.035 0.489,0.133c0.12,0.118 0.175,0.24 0.164,0.366c0.012,0.051 -0.01,0.132 -0.067,0.244c0.007,0.021 0.001,0.039 -0.014,0.055l-0.007,0.027c-0.006,-0.002 -0.018,0.005 -0.035,0.019l-0.007,0.028c-0.027,0.069 -0.033,0.126 -0.017,0.171c0.002,0.013 0.008,0.025 0.019,0.035c0.011,0.012 0.017,0.023 0.02,0.034c0.027,-0.003 0.048,-0.007 0.062,-0.013l0.042,-0.047c0.015,-0.012 0.02,-0.03 0.015,-0.054c0.016,-0.018 0.021,-0.036 0.014,-0.054c-0.003,-0.009 -0.01,-0.02 -0.02,-0.035c0.06,-0.053 0.096,-0.112 0.107,-0.176c0.142,-0.219 0.292,-0.412 0.45,-0.579l-0.008,0.027c0.291,-0.246 0.58,-0.411 0.865,-0.495c0.019,0.061 0.043,0.155 0.07,0.282l-0.028,-0.007c0.01,0.137 -0.014,0.257 -0.068,0.36c-0.048,0.131 -0.189,0.327 -0.423,0.587l0.028,0.007c-0.136,0.148 -0.349,0.286 -0.638,0.412c-0.009,0.009 -0.023,0.025 -0.042,0.047c0.004,0.013 0.008,0.033 0.012,0.061c0.009,0.009 0.015,0.021 0.02,0.035c0.031,0.001 0.051,-0.003 0.062,-0.012c0.073,-0.019 0.213,-0.069 0.42,-0.149c0.079,-0.013 0.195,-0.01 0.349,0.007c0.101,-0.001 0.194,0.015 0.279,0.047l0.028,0.007c0.099,0.047 0.156,0.092 0.168,0.133c-0.014,0.013 -0.054,0.051 -0.118,0.114c-0.156,0.112 -0.256,0.192 -0.299,0.241c-0.164,0.082 -0.275,0.13 -0.332,0.144c-0.263,-0.015 -0.468,0.056 -0.613,0.213c-0.131,0.15 -0.204,0.383 -0.219,0.7c0.022,0.44 0.195,0.662 0.52,0.667c0.138,0.012 0.24,-0.077 0.306,-0.267c0.065,-0.103 0.089,-0.155 0.072,-0.156l0.027,0.007c0.068,-0.007 0.14,0.12 0.218,0.381c0.089,0.218 0.126,0.404 0.112,0.557c0.012,0.03 0.016,0.051 0.012,0.061c-0.02,0 -0.041,0.004 -0.061,0.012c0.001,0.021 0.005,0.042 0.012,0.062c-0.008,0.021 -0.074,0.081 -0.195,0.181l-0.195,0.181c-0.047,0.032 -0.205,0.077 -0.475,0.134c-0.154,0.017 -0.29,0.087 -0.408,0.211c-0.083,0.051 -0.147,0.111 -0.195,0.18c-0.347,-0.463 -0.735,-0.899 -1.164,-1.309c0.255,-0.065 0.396,-0.115 0.42,-0.149c0.079,-0.081 0.112,-0.384 0.1,-0.908l-0.035,-0.945c0.01,-0.024 0.006,-0.044 -0.013,-0.062c0.004,-0.007 -0.005,-0.01 -0.026,-0.007c-0.004,-0.01 -0.013,-0.012 -0.028,-0.007c-0.088,0.015 -0.187,0.056 -0.297,0.124l-0.373,0.19c-0.344,0.159 -0.553,0.248 -0.628,0.268c-0.215,0.116 -0.367,0.241 -0.452,0.374m16.256,-7.127c1.066,-0.128 2.138,-0.236 3.215,-0.325c-0.127,0.926 -0.515,1.493 -1.163,1.7c-0.762,-0.645 -1.702,-1.056 -2.821,-1.234c0.258,-0.061 0.515,-0.108 0.769,-0.141m2.53,1.768c-0.058,-0.074 -0.128,-0.141 -0.208,-0.203c0.665,-0.268 1.054,-0.912 1.168,-1.933c0.566,-0.064 1.126,-0.116 1.679,-0.157c0.006,0.284 -0.081,0.494 -0.258,0.631c-0.21,0.163 -0.547,0.218 -1.01,0.164c-0.017,-0.001 -0.037,0.003 -0.062,0.013c-0.024,0.013 -0.05,0.036 -0.076,0.066c-0.309,0.468 -0.424,0.895 -0.348,1.28c0.063,0.342 0.292,0.647 0.687,0.916l-0.235,0.434c-0.462,-0.327 -0.899,-0.728 -1.31,-1.204l-0.027,-0.007m0.849,-19.7c-0.028,0.031 -0.059,0.071 -0.092,0.121c-0.102,0.136 -0.345,0.206 -0.73,0.211c-0.065,-0.009 -0.129,0.013 -0.192,0.065c-0.047,0.056 -0.075,0.126 -0.087,0.21c0.005,0.458 0.276,0.931 0.813,1.419c0.074,0.331 0.056,0.686 -0.055,1.066c-0.172,-0.115 -0.315,-0.271 -0.429,-0.467c-0.036,-0.063 -0.092,-0.107 -0.168,-0.134c-0.056,-0.02 -0.115,-0.017 -0.178,0.011c-0.068,0.026 -0.119,0.071 -0.153,0.134c-0.028,0.064 -0.037,0.13 -0.025,0.197c0.148,0.533 0.379,0.976 0.692,1.328c-0.09,0.333 -0.105,0.641 -0.046,0.923c0.08,0.303 0.259,0.576 0.537,0.817c-0.054,1.036 0.134,1.818 0.562,2.345c-4.472,1.046 -8.719,3.233 -12.742,6.563c-2.436,2.004 -5.045,3.575 -7.826,4.713c-0.033,0.015 -0.068,0.035 -0.104,0.059c-0.053,0.062 -0.115,0.113 -0.188,0.153c-0.02,0.013 -0.044,0.026 -0.069,0.04c-0.273,0.278 -0.502,0.547 -0.687,0.807c-0.813,1.167 -0.831,2.419 -0.055,3.755c0,0.31 0.03,0.629 0.09,0.959l0.008,-0.026c0.124,0.942 0.472,1.884 1.045,2.826c0.025,0.043 0.054,0.079 0.086,0.111c0.817,0.438 1.669,0.67 2.559,0.695c0.304,-0.003 0.594,-0.032 0.87,-0.085c1.708,0.35 3.019,0.15 3.933,-0.598c0.27,-0.204 0.497,-0.464 0.679,-0.779c0.022,-0.018 0.036,-0.034 0.042,-0.048c0.719,-2.312 1.631,-4.197 2.735,-5.657c1.01,0.111 1.949,-0.296 2.815,-1.222c1.471,-1.313 3.034,-1.434 4.688,-0.363c0.854,0.991 1.649,1.791 2.387,2.401c0.917,0.776 1.745,1.245 2.482,1.405l0.027,0.008c2.892,0.377 4.872,-0.243 5.943,-1.864c0.328,-0.393 0.6,-0.787 0.817,-1.181c0.303,-0.543 0.509,-1.051 0.62,-1.526l0.007,-0.028c0.046,-0.256 0.065,-0.503 0.056,-0.744l0.027,0.007c0.005,-0.085 -0.002,-0.164 -0.022,-0.24c0.14,-0.25 0.36,-0.414 0.66,-0.493l-0.028,-0.007c0.094,-0.014 0.186,-0.028 0.275,-0.042c0.254,-0.016 0.534,-0.008 0.841,0.024c2.533,0.271 4.252,-0.032 5.157,-0.908c7.078,-0.261 11.699,-0.594 13.861,-0.998l3.468,0.036c0.062,-0.005 0.115,-0.02 0.158,-0.045c0.044,-0.025 0.071,-0.057 0.084,-0.094c0.039,-0.053 0.053,-0.107 0.045,-0.164l-0.009,-0.294l7.704,0.047c0.087,-0.006 0.154,-0.036 0.2,-0.092c0.055,-0.043 0.078,-0.095 0.071,-0.156l0.09,-0.005l-0.006,0.233c0.021,0.067 0.054,0.125 0.1,0.173c0.062,0.049 0.123,0.075 0.183,0.079l2.976,0.019c0.077,-0.005 0.141,-0.027 0.193,-0.065c0.05,-0.037 0.083,-0.087 0.099,-0.148l5.931,0.004l0.797,0.187c0.065,0.014 0.124,0.011 0.178,-0.01c0.053,-0.019 0.09,-0.048 0.111,-0.087c0.042,-0.056 0.057,-0.11 0.045,-0.163l0.016,-1.456c0.013,-0.065 -0.002,-0.117 -0.045,-0.159c-0.021,-0.057 -0.059,-0.096 -0.115,-0.119c-0.05,-0.022 -0.107,-0.028 -0.17,-0.017l-0.818,0.216l-5.925,-0.031c0.003,-0.04 -0.017,-0.075 -0.059,-0.104c-0.041,-0.063 -0.099,-0.098 -0.176,-0.106l-0.629,-0.053c1.041,-0.542 1.848,-1.112 2.423,-1.71c1.997,-0.06 3.839,0.08 5.526,0.42c0.947,0.355 1.994,0.805 3.141,1.35c0.055,0.022 0.111,0.028 0.171,0.017c0.056,-0.006 0.1,-0.023 0.131,-0.052c0.053,-0.044 0.085,-0.094 0.098,-0.149c0.725,-2.733 0.773,-5.457 0.145,-8.172c-0.015,-0.074 -0.048,-0.132 -0.099,-0.173c-0.051,-0.04 -0.114,-0.058 -0.191,-0.052c-0.053,-0.008 -0.106,0.007 -0.158,0.045c-1.329,0.956 -3.632,1.402 -6.91,1.337l-8.873,-0.043c-0.095,-0.206 -0.3,-0.311 -0.616,-0.314l-0.028,-0.007l-1.259,0.009c-0.299,-0.013 -0.501,0.088 -0.608,0.302l-21.283,-0.082c-1.519,-0.274 -3.135,-0.275 -4.851,-0.003l-0.027,-0.007l-1.259,0.008c0.02,-1.701 -0.272,-2.599 -0.876,-2.693c-0.025,-0.004 -0.055,-0.002 -0.089,0.005c-0.455,0.048 -0.746,-0.674 -0.874,-2.165c0.005,-0.073 -0.019,-0.128 -0.072,-0.166c-0.043,-0.06 -0.101,-0.096 -0.176,-0.107c-0.059,-0.002 -0.124,0.019 -0.192,0.065c-0.047,0.033 -0.08,0.082 -0.099,0.148c-0.296,1.097 -0.249,2.143 0.142,3.137c0.01,0.025 0.023,0.047 0.04,0.07c0.41,0.54 0.699,1.125 0.868,1.755c-2.194,0.246 -3.906,0.56 -5.137,0.943c-0.028,-0.008 -0.067,-0.009 -0.116,-0.003c-0.147,0.001 -0.307,0.016 -0.48,0.044l0.027,0.008c-1.192,0.189 -2.036,0.212 -2.533,0.072c-0.151,-0.049 -0.259,-0.118 -0.324,-0.205c-0.012,-0.084 -0.006,-0.18 0.019,-0.286c2.001,-0.601 3.055,-1.396 3.161,-2.386c0.447,-0.281 0.69,-0.565 0.729,-0.854c0.014,-0.059 0.008,-0.109 -0.017,-0.151c-0.006,-0.055 -0.033,-0.101 -0.08,-0.138c-0.59,-0.559 -1.426,-0.747 -2.506,-0.565c-0.08,0.012 -0.149,0.052 -0.208,0.119c-0.029,0.053 -0.198,0.027 -0.505,-0.078c-0.2,-0.121 -0.373,-0.236 -0.519,-0.346c-0.23,-0.213 -0.39,-0.412 -0.481,-0.598c0.046,-0.623 0.006,-1.083 -0.123,-1.378c-0.169,-0.432 -0.457,-0.627 -0.864,-0.585c-0.034,-0.004 -0.075,0.004 -0.123,0.025" style="fill:#fff;fill-rule:nonzero;"/></svg>