<svg xmlns="http://www.w3.org/2000/svg" width="100" height="100" viewBox="0 0 100 100"><title>icons</title><path d="M289.8 74.5h3.5c-11.4.1-23.3-.3-35.1-.8 25.6 3.8 55.8 7.1 75.6-.9 2.1 4.2 27 6.2 27.5 5.2q7.7-1.2 15.7-1.9l-10.8 1 10.8-1c33.4-3.3 69.7-1.9 107.2-.2 20.8.8 77.4 1.7 98.7 3l9.3.4-10.4-.8c13-1.1 24.8-2.2 36.2-3a31.6 31.6 0 0 0-7.1-2l5.8.4c5.3-1.8 17.5-1.7 23.3-2.4-1.2.9 3.3 1.1 7.3 1.2l-1.6-.6c15.2.4 32.8-.4 46.4-.3a12.1 12.1 0 0 1 4.2.7l13-.7c-1 1.2 10.8 1.1 4.6 1.9 9.7-1.5 19.6-.6 28.9-2.1 33.2-.2 68.4-1.1 102.7-3.2l-.8-.5c12-.8 22.6-3.3 37.2-2.4 10.4-1.6 25.2-2.5 29.4-5.1 12-.4 16.8-1.6 28.6-2.3-3-1.3 11.5-1.5 5.7-2.5-7.8-1.8-8.3-.3-14.9-1.7l.2.4c-31-1.9-62-3-93.4-3.6-21 1.1-43.7.2-65.5.5-23.5.5-48.8 1.3-68.9 2.4-4.8.4-8.3-.7-12.4-1.3-18.5.6-42 .1-62.9.8h1c-11.1.2-19.4-1.1-30.2-.9.1.4-1.6.4-2.4.6-1.9-1.7-63.7 3.5-67.6 2.5l-3.5.2c-22.9-.8-46.5-4.1-66.1-3.8-4.3.8-9.1 1.5-12.6 2.4-3.5-.7-4.1.7-8.3.5-10.6-3.4-16.8-2-11.4-.8-8.7.5-17.5.2-25.3.3l-10.8.8a10.5 10.5 0 0 1-6.4-1c-7.9.5-5.6-.4-13.8-.7-2-1.2-20.7 1.9-23.1 1.5l1.4-.2c-9.6-.2-15.9-2.5-25.3-2.6-26-.9-54.3 0-78.4-.4-.2 1.2 5.3-.3 5.6 1.4-14.2-.2-28.5-1.8-42.8-2a48.8 48.8 0 0 1-6.9-1.4c-4.6-.5-2.7.6-6.1.4l-.5-1.1c-4.9.9-7.2-1.2-11.8-.8-.2.5-1.9.5-3.6.5-.1-1.2-5 .1-4.8-1a16.4 16.4 0 0 1-2.9-.1c-1.9.4-19.5 3.7-21.4 4.2l-.9-.2c-2.6 0-3.8.9-2.2 1.1h-6.1c-.6-.1-1.3-.7-.4-1.2a17.6 17.6 0 0 1-5.7.4c5.1.7 11.4 1.8 16.7 3-2.2.4-6.1-.2-8.5-.1s-8.6-1.5-13.2-2c-1 .1-1.7 1.4-3.9.8s-2.5 0-4.4-.6a25.9 25.9 0 0 1 6.4-.2c-.4-1.1-5.3-.7-7-1s-5 0-7.7.3c1.2-1-2.1-.7-3.7-1.2s-2.9.3-2.2.7 7.1.7 4.6 1.9c-.7-.5-4.2-.4-6-.3 0 .6 1.3.5.1 1.1s-4.3.6-5.5 0a6.1 6.1 0 0 1 1.9 0c-2.7-.1 14.8-4 11.2-3.7.9.5-15.5 3.7-13.7 3.7s-1.2 1.1.5 1.3l1.9-.7c2.4.2 3.3 1.3 2.5 1.7-3.9-.1 11.2-4.2 7.8-3.6l1.4.3c-1.4.4-5.2.8-6.7.1s-1.9.8-3.5 1h-.5c-1.6.3-3.9.2-2.9 1 9.7-.1-6.4 6.2 3 6.6-3.9-1.3 1.3-1.4 5.4-1.5.4.5 2.2 1.1 5.2 1.5s1.5-.5 2-.8 4.1.6 3.8 1.3c2-.8 3.2.5 5.6.2s-.1-.4 1.4-.8l10.1.4c1 .7 3.9 1.8 1.8 2.9-4.8-.1 1.8-1.7-3.2-1.5 2.2 1.5-4.4.4-5.3 1.6 1.6.7 4.8.7 7.5.5l-.5-.2c2.4-.2 7.1-.5 9.7.3-.6.5.5.9-1.2 1.1h3.3c.4-.2.8-.3-.1-.5a8.4 8.4 0 0 1 4.3.1c.4.6 17.4-2.4 16.9-2 2.4 0 2.9.8 5.2.3.2-.5-22.6 1.9-19.5 1.7s26.8-2.8 28.2-1.8 3.9-.2 3.5-.7c3 .3-.9 1.1 1.2 1.6 0-.1-.2-.3.5-.3l2 .7c4.6-.9 11.3.3 16.1-.9a20.9 20.9 0 0 1-6.1 2.3l-.5-.3c-.4.2-3 .4-2.9.9a26.2 26.2 0 0 0 8.5-.3l1.7.5c0-.1-.1-.1 0-.2s.9.4.5.6h-.2c1.8 1.7 11.5-1.1 16.9-.2 1.6-.2.1-.3 2.1-.6 5.5.7 9.3 1.2 15 1.6 1.8-.7 2-1-.2-1.8l4.3.2c-3.9 1.9 8.1 1.8 3.7 3.8a16.5 16.5 0 0 0 6.3.2c.2-.5.6-1.3 3.7-1.3l6.8 1c.8.6-.5.9-.3 1.4 5.4-.8 4.7 1.4 9.9 1.3 3.2-.2 9.5-.3 9.7-1.4 4.3.1 4.3.9 3.9 1.8z" fill="#fff" data-name="Layer 1"/><path d="M23.8 84.3c1-6.2 1.8-12.5 3.2-18.7.8-3.7-.3-6-2.9-8.4-4.1-3.7-8.1-7.6-11.9-11.6-1.2-1.3-2.6-3.8-2.2-5s3.1-2.3 4.9-2.6c5.8-1.1 11.7-1.5 17.4-2.8a9.6 9.6 0 0 0 5.6-4.2c3-5.2 5.4-10.8 8.2-16.1.8-1.4 2.5-3.2 3.8-3.2s3 1.8 3.8 3.3c2.8 5.2 5.5 10.4 7.8 15.8a7.3 7.3 0 0 0 6.5 4.7c5.8.7 11.7 1.5 17.5 2.5 1.6.3 3.9 1.3 4.4 2.6s-.8 3.4-1.9 4.6c-4 4.3-8.3 8.4-12.6 12.3-2.3 2.1-3.3 4.3-2.5 7.5 1.2 5.4 2.1 10.9 2.8 16.4.2 2-.4 4.1-.7 6.1-2-.3-4.3-.1-6-.9-5.2-2.4-10-5.5-15.3-7.7a10.4 10.4 0 0 0-7.3 0c-5.7 2.5-11 5.7-16.6 8.5-3.8 1.9-5.9.6-6-3.1z" fill="none" stroke="#ea2127" stroke-miterlimit="10" stroke-width="2"/></svg>